<svg width="16" height="16" viewBox="0 0 16 16" fill="none" xmlns="http://www.w3.org/2000/svg">
<path fill-rule="evenodd" clip-rule="evenodd" d="M7 1.55556C3.99312 1.55556 1.55556 3.99312 1.55556 7C1.55556 10.0069 3.99312 12.4444 7 12.4444C10.0069 12.4444 12.4444 10.0069 12.4444 7C12.4444 3.99312 10.0069 1.55556 7 1.55556ZM0 7C0 3.13401 3.13401 0 7 0C10.866 0 14 3.13401 14 7C14 10.866 10.866 14 7 14C3.13401 14 0 10.866 0 7Z" fill="white"/>
<path fill-rule="evenodd" clip-rule="evenodd" d="M12.3611 12.3611C12.6649 12.0574 13.1573 12.0574 13.4611 12.3611L15.3278 14.2278C15.6315 14.5316 15.6315 15.024 15.3278 15.3278C15.024 15.6315 14.5316 15.6315 14.2278 15.3278L12.3611 13.4611C12.0574 13.1573 12.0574 12.6649 12.3611 12.3611Z" fill="white"/>
</svg>
