<svg width="86" height="82" viewBox="0 0 86 82" fill="none" xmlns="http://www.w3.org/2000/svg">
<g clip-path="url(#clip0_22_1188)">
<path d="M14.9373 77.0302V35.9878L47.7083 3.44518L44.1659 -0.0725098L9.93244 33.9224L9.9365 33.9264H9.92838V77.0302V82.0001H14.9373H86V77.0302H14.9373Z" fill="white"/>
<path d="M5.00888 71.4592V30.4613L21.628 13.958L17.8256 10.6985L0.00406235 28.3958L0.0081247 28.3999H0V71.4592" fill="#A91E22"/>
<path d="M32.7629 51.6238C32.9213 51.8779 33.1691 52.0393 33.5104 52.1119V52.3257H31.3533C31.0811 52.3539 30.8617 52.249 30.6911 52.007L26.1819 45.258H23.7648L23.7851 51.4947C23.7851 51.6076 23.8054 51.7085 23.8501 51.7932C23.8785 51.8779 23.9313 51.9505 24.0085 52.0151C24.0857 52.0796 24.1913 52.1119 24.3173 52.1119V52.3257H21.2461V52.1119C21.3883 52.1119 21.498 52.0796 21.5752 52.0151C21.6524 51.9505 21.7092 51.8779 21.7336 51.7932C21.7783 51.7085 21.7986 51.6076 21.7986 51.4947V38.2751C21.7986 38.1622 21.7783 38.0613 21.7336 37.9766C21.7052 37.904 21.6524 37.8394 21.5752 37.7749C21.498 37.7103 21.3842 37.6781 21.2461 37.6781V37.4441H25.6903C26.4581 37.4441 27.2422 37.4643 28.0384 37.5086C28.8346 37.553 29.5618 37.6942 30.2199 37.9322C30.8739 38.1743 31.4101 38.5575 31.8204 39.09C32.2348 39.6225 32.442 40.3728 32.442 41.349C32.442 42.0711 32.3323 42.6682 32.121 43.1402C31.9057 43.6162 31.6132 43.9954 31.2436 44.2858C30.8739 44.5763 30.4514 44.7861 29.9721 44.9232C29.4968 45.0563 28.9849 45.1451 28.4446 45.1895L32.7629 51.6238ZM26.5881 44.9151C26.8156 44.9151 27.1406 44.895 27.559 44.8506C27.9774 44.8103 28.3959 44.6771 28.8102 44.4593C29.2205 44.2415 29.5821 43.8905 29.8867 43.4104C30.1914 42.9304 30.3458 42.2446 30.3458 41.3531C30.3458 40.4777 30.2239 39.8 29.9721 39.328C29.7243 38.852 29.3993 38.501 29.0012 38.267C28.603 38.0331 28.1562 37.8959 27.6565 37.8515C27.1568 37.8072 26.6531 37.787 26.1413 37.787H23.7648V44.9151H26.5881Z" fill="white"/>
<path d="M40.4326 52.1119C41.1598 52.0554 41.8098 51.8174 42.3866 51.4019C42.9635 50.9864 43.3819 50.4459 43.6378 49.7803L43.979 49.865C43.7922 50.3733 43.5078 50.821 43.1219 51.2002C42.7969 51.5391 42.3379 51.8497 41.7448 52.1321C41.1517 52.4145 40.3879 52.5557 39.4495 52.5557C38.568 52.5557 37.8043 52.4185 37.1746 52.1402C36.5409 51.8659 36.025 51.4867 35.6269 51.0066C35.2287 50.5265 34.9363 49.9618 34.7494 49.3204C34.5666 48.679 34.4731 47.9891 34.4731 47.2509C34.4731 46.5288 34.5666 45.8471 34.7494 45.2016C34.9363 44.5602 35.2287 43.9954 35.6269 43.5154C36.025 43.0353 36.5409 42.6561 37.1746 42.3818C37.8083 42.1075 38.568 41.9663 39.4495 41.9663C40.5626 41.9663 41.4482 42.1599 42.1104 42.5512C42.7725 42.9425 43.2722 43.4024 43.6175 43.943C43.9587 44.4795 44.1862 45.0402 44.2919 45.6212C44.3975 46.2021 44.4503 46.674 44.4503 47.0411H36.5856V47.2549C36.5856 47.9327 36.6587 48.5821 36.809 49.1953C36.9593 49.8085 37.1868 50.345 37.4915 50.7968C37.7961 51.2486 38.1943 51.5956 38.6777 51.8376C39.1652 52.0756 39.7501 52.1644 40.4326 52.1119ZM39.4495 42.3052C39.0067 42.3052 38.6167 42.4181 38.2755 42.644C37.9343 42.8699 37.6418 43.1806 37.398 43.5759C37.1543 43.9712 36.9674 44.4351 36.8293 44.9676C36.6953 45.4961 36.6099 46.073 36.5856 46.6982H42.3135V46.6781C42.216 45.1774 41.9154 44.0761 41.4157 43.3661C40.916 42.6602 40.262 42.3052 39.4495 42.3052Z" fill="white"/>
<path d="M54.6427 51.4946C54.6427 51.6075 54.6671 51.7084 54.7077 51.7931C54.7524 51.8778 54.8052 51.9504 54.8783 52.015C54.9515 52.0795 55.0571 52.1118 55.1993 52.1118V52.3256H53.0828C52.969 52.3256 52.8675 52.2812 52.7822 52.1965C52.6968 52.1118 52.6562 52.0109 52.6562 51.898V50.4336C52.4978 50.8572 52.3028 51.2041 52.0672 51.4744C51.8316 51.7447 51.5838 51.9585 51.3197 52.1199C51.0557 52.2812 50.7794 52.3942 50.4951 52.4587C50.2107 52.5233 49.9385 52.5555 49.6826 52.5555C49.642 52.5555 49.5201 52.5555 49.321 52.5555C49.122 52.5555 48.8823 52.5394 48.6061 52.5152C48.3298 52.487 48.0333 52.4265 47.7205 52.3337C47.4077 52.2409 47.1192 52.1037 46.8552 51.9182C46.5911 51.7326 46.3758 51.4946 46.2052 51.1961C46.0346 50.8976 45.9493 50.5224 45.9493 50.0706C45.9493 49.6188 46.0468 49.2275 46.2377 48.8926C46.4327 48.5618 46.713 48.2472 47.0908 47.9567C47.4686 47.6663 47.9398 47.3839 48.5004 47.1096C49.0651 46.8353 49.7232 46.5327 50.4788 46.21C51.2507 45.8832 51.8031 45.6089 52.1484 45.383C52.4897 45.1571 52.6603 44.8465 52.6603 44.4512V44.2373C52.6603 44.0114 52.6115 43.7815 52.5222 43.5475C52.4287 43.3135 52.2866 43.1038 52.0956 42.9222C51.9006 42.7407 51.6691 42.5915 51.3888 42.4785C51.1125 42.3656 50.7875 42.3091 50.4179 42.3091C49.9913 42.3091 49.6216 42.3817 49.3048 42.5309C48.992 42.6802 48.732 42.8779 48.5248 43.124C48.3176 43.37 48.1673 43.6564 48.078 43.9832C47.9845 44.31 47.9398 44.6488 47.9398 45.0038L46.3352 44.4512C46.4083 44.2373 46.5383 43.9913 46.7333 43.7089C46.9242 43.4265 47.1924 43.1522 47.5336 42.894C47.8748 42.6318 48.3054 42.414 48.8254 42.2365C49.3454 42.059 49.9751 41.9702 50.7144 41.9702C51.4416 41.9702 52.055 42.0711 52.5506 42.2687C53.0503 42.4664 53.4565 42.7246 53.7693 43.0433C54.0821 43.362 54.3096 43.7089 54.4437 44.0841C54.5777 44.4592 54.6468 44.8304 54.6468 45.1974V51.4946H54.6427ZM52.6562 45.3628C52.4978 45.5202 52.2662 45.6775 51.9616 45.8389C51.6569 46.0002 51.2385 46.21 50.7104 46.4641C50.1254 46.7465 49.6582 47.0652 49.3088 47.4202C48.9595 47.7752 48.6914 48.1262 48.5086 48.4691C48.3217 48.816 48.1998 49.1427 48.147 49.4453C48.0901 49.7519 48.0617 49.9939 48.0617 50.1755C48.0617 50.3449 48.082 50.5466 48.1226 50.7806C48.1673 51.0145 48.2567 51.2364 48.3908 51.4502C48.5248 51.664 48.7157 51.8415 48.9595 51.9908C49.2032 52.14 49.5201 52.2126 49.9223 52.2126C50.4626 52.2126 50.9135 52.0795 51.2669 51.8214C51.6203 51.5591 51.9006 51.2566 52.0997 50.9097C52.2987 50.5627 52.4409 50.2239 52.5262 49.8931C52.6115 49.5623 52.6562 49.3243 52.6562 49.1831V45.3628Z" fill="white"/>
<path d="M59.6638 51.4948C59.6638 51.6077 59.6841 51.7086 59.7288 51.7933C59.7572 51.878 59.81 51.9506 59.8872 52.0151C59.9644 52.0797 60.07 52.112 60.196 52.112V52.3258H57.1167V52.112C57.2589 52.112 57.3686 52.0797 57.4498 52.0151C57.5311 51.9506 57.5839 51.878 57.6082 51.7933C57.6529 51.7086 57.6732 51.6077 57.6732 51.4948V38.2752C57.6732 38.1622 57.6529 38.0614 57.6082 37.9767C57.5798 37.9041 57.527 37.8395 57.4498 37.775C57.3726 37.7104 57.2589 37.6782 57.1167 37.6782V37.4644H59.2332C59.3307 37.4644 59.4322 37.5007 59.5338 37.5692C59.6191 37.6822 59.6638 37.783 59.6638 37.8678V51.4948Z" fill="white"/>
<path d="M31.6295 68.841L31.4142 70.858H21.2217V70.6442C21.3639 70.6442 21.4736 70.6119 21.5549 70.5474C21.632 70.4828 21.6889 70.4102 21.7133 70.3255C21.758 70.2408 21.7783 70.1399 21.7783 70.027V56.8276C21.7783 56.7146 21.758 56.6098 21.7133 56.5089C21.6848 56.4363 21.632 56.3717 21.5549 56.3072C21.4777 56.2427 21.3639 56.2104 21.2217 56.2104V55.9966H24.301V56.2104C24.171 56.2104 24.0694 56.2427 23.9923 56.3072C23.9151 56.3717 23.8582 56.4363 23.8338 56.5089C23.7891 56.6098 23.7688 56.7146 23.7688 56.8276V70.5353H29.6227C30.1914 70.5353 30.6098 70.3699 30.8698 70.0351C31.1339 69.7043 31.3086 69.3049 31.3939 68.8369H31.6295V68.841Z" fill="white"/>
<path d="M37.463 60.5027C38.3445 60.5027 39.1042 60.6398 39.7379 60.9182C40.3717 61.1925 40.8916 61.5717 41.2979 62.0518C41.7041 62.5318 42.0007 63.0966 42.1835 63.738C42.3703 64.3834 42.4597 65.0652 42.4597 65.7873C42.4597 66.5215 42.3663 67.2113 42.1835 67.8568C42.0007 68.5022 41.7041 69.0629 41.2979 69.543C40.8916 70.023 40.3757 70.4022 39.7501 70.6765C39.1205 70.9509 38.3608 71.092 37.463 71.092C36.5815 71.092 35.8178 70.9549 35.1881 70.6765C34.5544 70.4022 34.0385 70.023 33.6403 69.543C33.2422 69.0629 32.9497 68.4982 32.7629 67.8568C32.5801 67.2153 32.4866 66.5255 32.4866 65.7873C32.4866 65.0652 32.5801 64.3834 32.7629 63.738C32.9497 63.0966 33.2422 62.5318 33.6403 62.0518C34.0385 61.5717 34.5544 61.1925 35.1881 60.9182C35.8218 60.6398 36.5815 60.5027 37.463 60.5027ZM37.463 70.7492C37.9586 70.7492 38.3933 70.616 38.7548 70.3579C39.1164 70.0997 39.417 69.7406 39.6526 69.2969C39.8882 68.8532 40.0629 68.3247 40.1767 67.7156C40.2904 67.1064 40.3473 66.465 40.3473 65.7833C40.3473 65.1055 40.2904 64.4641 40.1767 63.863C40.0629 63.262 39.8882 62.7375 39.6526 62.2938C39.417 61.8501 39.1205 61.4951 38.7548 61.2328C38.3933 60.9706 37.9586 60.8415 37.463 60.8415C36.9796 60.8415 36.5571 60.9706 36.1915 61.2328C35.8299 61.4951 35.5293 61.8501 35.2937 62.2938C35.0581 62.7375 34.8834 63.262 34.7697 63.863C34.6559 64.4641 34.5991 65.1055 34.5991 65.7833C34.5991 66.461 34.6559 67.1064 34.7697 67.7156C34.8834 68.3247 35.0581 68.8491 35.2937 69.2969C35.5293 69.7406 35.8259 70.0956 36.1915 70.3579C36.5571 70.6201 36.9796 70.7492 37.463 70.7492Z" fill="white"/>
<path d="M53.489 68.373C53.3062 68.8813 53.0178 69.3371 52.6359 69.7325C52.3068 70.0713 51.8478 70.3819 51.2588 70.6643C50.6657 70.9467 49.9019 71.0879 48.9635 71.0879C48.082 71.0879 47.3223 70.9507 46.6886 70.6724C46.0549 70.3981 45.539 70.0189 45.1409 69.5388C44.7427 69.0588 44.4503 68.494 44.2675 67.8526C44.0806 67.2112 43.9912 66.5214 43.9912 65.7831C43.9912 65.061 44.0846 64.3793 44.2675 63.7338C44.4503 63.0924 44.7427 62.5277 45.1409 62.0476C45.539 61.5676 46.0589 61.1884 46.6886 60.914C47.3223 60.6397 48.082 60.4985 48.9635 60.4985C49.5607 60.4985 50.0929 60.559 50.556 60.6801C51.0191 60.8011 51.4253 60.9665 51.7747 61.1803C52.124 61.3941 52.4247 61.6361 52.6725 61.9105C52.9203 62.1848 53.1315 62.4792 53.3021 62.7899L51.9778 63.7459C51.8478 63.3345 51.7137 62.9553 51.5716 62.6003C51.4294 62.2453 51.2506 61.9387 51.0394 61.6765C50.8241 61.4143 50.5682 61.2085 50.2594 61.0633C49.9547 60.914 49.581 60.8414 49.1382 60.8414C48.6101 60.8414 48.1551 60.9705 47.7733 61.2327C47.3873 61.4949 47.0745 61.8499 46.8308 62.2937C46.5871 62.7374 46.4083 63.2619 46.2864 63.8629C46.1646 64.464 46.1036 65.1054 46.1036 65.7831C46.1036 66.4609 46.1768 67.1103 46.3271 67.7235C46.4774 68.3367 46.7049 68.8732 47.0136 69.325C47.3183 69.7768 47.7164 70.1238 48.1998 70.3658C48.6832 70.6078 49.2682 70.6966 49.9507 70.6401C50.6778 70.5836 51.3278 70.3456 51.9087 69.9301C52.4856 69.5146 52.9 68.9741 53.1559 68.3084L53.489 68.373Z" fill="white"/>
<path d="M63.6774 70.0271C63.6774 70.14 63.7018 70.2409 63.7424 70.3256C63.7871 70.4103 63.8399 70.4829 63.913 70.5475C63.9861 70.612 64.0917 70.6443 64.2339 70.6443V70.8581H62.1174C62.0037 70.8581 61.9021 70.8137 61.8168 70.729C61.7315 70.6443 61.6909 70.5434 61.6909 70.4305V68.9661C61.5325 69.3897 61.3375 69.7366 61.1018 70.0069C60.8662 70.2772 60.6184 70.491 60.3544 70.6523C60.0903 70.8137 59.8141 70.9267 59.5297 70.9912C59.2454 71.0557 58.9732 71.088 58.7172 71.088C58.6766 71.088 58.5548 71.088 58.3557 71.088C58.1566 71.088 57.917 71.0719 57.6407 71.0477C57.3645 71.0194 57.0679 70.9589 56.7551 70.8661C56.4423 70.7734 56.1539 70.6362 55.8899 70.4506C55.6258 70.2651 55.4105 70.0271 55.2399 69.7285C55.0693 69.43 54.9839 69.0549 54.9839 68.603C54.9839 68.1512 55.0814 67.7599 55.2724 67.4251C55.4674 67.0943 55.7477 66.7797 56.1255 66.4892C56.5033 66.1988 56.9745 65.9164 57.5351 65.6421C58.0998 65.3677 58.7579 65.0652 59.5135 64.7425C60.2853 64.4157 60.8378 64.1414 61.1831 63.9155C61.5243 63.6896 61.6949 63.379 61.6949 62.9836V62.7698C61.6949 62.5439 61.6462 62.314 61.5568 62.08C61.4634 61.846 61.3212 61.6363 61.1303 61.4547C60.9353 61.2732 60.7037 61.1239 60.4234 61.011C60.1472 60.898 59.8222 60.8415 59.4525 60.8415C59.026 60.8415 58.6563 60.9142 58.3394 61.0634C58.0266 61.2127 57.7667 61.4103 57.5595 61.6564C57.3523 61.9025 57.202 62.1889 57.1126 62.5157C57.0192 62.8424 56.9745 63.1813 56.9745 63.5363L55.3699 62.9836C55.443 62.7698 55.573 62.5237 55.768 62.2414C55.9589 61.959 56.227 61.6847 56.5683 61.4265C56.9095 61.1643 57.3401 60.9464 57.8601 60.7689C58.3801 60.5914 59.0097 60.5027 59.7491 60.5027C60.4762 60.5027 61.0897 60.6035 61.5853 60.8012C62.0849 60.9989 62.4912 61.2571 62.804 61.5757C63.1168 61.8944 63.3443 62.2414 63.4783 62.6165C63.6124 62.9917 63.6814 63.3628 63.6814 63.7299V70.0271H63.6774ZM61.6949 63.8953C61.5365 64.0526 61.305 64.21 61.0003 64.3713C60.6956 64.5327 60.2772 64.7425 59.7491 64.9966C59.1641 65.279 58.6969 65.5977 58.3476 65.9527C57.9982 66.3077 57.7301 66.6586 57.5473 67.0015C57.3604 67.3485 57.2386 67.6752 57.1857 67.9778C57.1289 68.2844 57.1004 68.5264 57.1004 68.7079C57.1004 68.8774 57.1207 69.0791 57.1614 69.313C57.2061 69.547 57.2954 69.7689 57.4295 69.9827C57.5635 70.1965 57.7545 70.374 57.9982 70.5233C58.242 70.6725 58.5588 70.7451 58.961 70.7451C59.5013 70.7451 59.9522 70.612 60.3056 70.3538C60.6591 70.0916 60.9394 69.7891 61.1384 69.4421C61.3375 69.0952 61.4796 68.7563 61.565 68.4255C61.6503 68.0948 61.6949 67.8567 61.6949 67.7156V63.8953Z" fill="white"/>
<path d="M71.5015 70.6885C71.0303 70.987 70.5184 71.1202 69.9619 71.0919C69.1656 71.0919 68.5563 70.9507 68.1338 70.6684C67.7154 70.386 67.4026 70.0753 67.2035 69.7365C66.976 69.3533 66.846 68.9095 66.8176 68.4012V61.0593H65.2983V60.7204H66.8176V58.534L68.8041 57.5779V60.7164H71.4324V61.0552H68.8041V68.845C68.8041 68.9579 68.8163 69.1193 68.8488 69.3331C68.8772 69.5469 68.9463 69.7526 69.0519 69.9584C69.1575 70.1641 69.3119 70.3456 69.5109 70.4989C69.71 70.6562 69.9822 70.7329 70.3234 70.7329C70.494 70.7329 70.6646 70.7127 70.8353 70.6684C71.0059 70.628 71.1603 70.5554 71.3065 70.4586L71.5015 70.6885Z" fill="white"/>
<path d="M78.444 70.6442C79.1712 70.5877 79.8212 70.3497 80.398 69.9342C80.9749 69.5187 81.3933 68.9781 81.6492 68.3125L81.9905 68.3972C81.8036 68.9055 81.5192 69.3533 81.1333 69.7325C80.8083 70.0713 80.3493 70.3819 79.7562 70.6643C79.1631 70.9467 78.3993 71.0879 77.4609 71.0879C76.5794 71.0879 75.8157 70.9507 75.186 70.6724C74.5523 70.3981 74.0364 70.0189 73.6383 69.5388C73.2402 69.0588 72.9477 68.494 72.7608 67.8526C72.578 67.2112 72.4846 66.5214 72.4846 65.7831C72.4846 65.061 72.578 64.3793 72.7608 63.7338C72.9477 63.0924 73.2402 62.5277 73.6383 62.0476C74.0364 61.5676 74.5523 61.1884 75.186 60.914C75.8198 60.6397 76.5794 60.4985 77.4609 60.4985C78.574 60.4985 79.4596 60.6922 80.1218 61.0835C80.7839 61.4748 81.2836 61.9347 81.6289 62.4752C81.9702 63.0117 82.1976 63.5725 82.3033 64.1534C82.4089 64.7343 82.4617 65.2063 82.4617 65.5734H74.597V65.7872C74.597 66.4649 74.6701 67.1144 74.8204 67.7275C74.9707 68.3407 75.1982 68.8772 75.5029 69.3291C75.8076 69.7809 76.2057 70.1278 76.6891 70.3698C77.1766 70.6078 77.7616 70.7006 78.444 70.6442ZM77.4609 60.8414C77.0181 60.8414 76.6282 60.9544 76.2869 61.1803C75.9457 61.4062 75.6532 61.7168 75.4095 62.1122C75.1657 62.5075 74.9788 62.9714 74.8407 63.5039C74.7067 64.0324 74.6214 64.6092 74.597 65.2345H80.3249V65.2143C80.2274 63.7137 79.9268 62.6124 79.4271 61.9024C78.9275 61.1924 78.2734 60.8414 77.4609 60.8414Z" fill="white"/>
</g>
<defs>
<clipPath id="clip0_22_1188">
<rect width="86" height="82" fill="white"/>
</clipPath>
</defs>
</svg>
