<svg width="24" height="24" viewBox="0 0 24 24" fill="none" xmlns="http://www.w3.org/2000/svg">
<path fill-rule="evenodd" clip-rule="evenodd" d="M12.0034 14.0033C14.4887 14.0033 16.5034 11.9886 16.5034 9.50335C16.5034 7.01806 14.4887 5.00335 12.0034 5.00335C9.51816 5.00335 7.50344 7.01806 7.50344 9.50335C7.50344 11.9886 9.51816 14.0033 12.0034 14.0033ZM12.0034 12.0069C10.6207 12.0069 9.49985 10.886 9.49985 9.50335C9.49985 8.12065 10.6207 6.99976 12.0034 6.99976C13.3861 6.99976 14.507 8.12065 14.507 9.50335C14.507 10.886 13.3861 12.0069 12.0034 12.0069Z" fill="#A91E22"/>
<path fill-rule="evenodd" clip-rule="evenodd" d="M21.2718 11.5816C22.5647 5.78803 18.005 0.00341797 11.9998 0.00341797C5.99633 0.00341797 1.43624 5.79597 2.72801 11.5824C3.72507 16.2819 7.75705 20.8464 10.1634 23.2267C11.194 24.2462 12.8057 24.2462 13.8363 23.2267C16.2428 20.8463 20.275 16.2815 21.2718 11.5816ZM11.9998 2.00342C16.7123 2.00342 20.3366 6.58969 19.3199 11.146C18.8315 13.3353 17.7357 15.3014 16.45 17.1189C15.1062 19.0183 13.5828 20.6643 12.4298 21.8049C12.1784 22.0535 11.8213 22.0535 11.5699 21.8049C10.417 20.6644 8.89364 19.0185 7.54993 17.1192C6.26404 15.3016 5.16871 13.336 4.67996 11.1466C3.66423 6.5967 7.28997 2.00342 11.9998 2.00342Z" fill="#A91E22"/>
</svg>
