<svg width="55" height="55" viewBox="0 0 55 55" fill="none" xmlns="http://www.w3.org/2000/svg">
<path d="M35.1739 2.0196C35.0316 2.16189 34.93 2.50745 34.93 2.81236C34.93 3.27989 34.8284 3.36119 34.1779 3.46283C33.1819 3.62545 32.6127 4.03199 32.2062 4.90606C31.7793 5.82078 31.7996 6.79648 32.2468 7.65022C32.816 8.72755 33.7104 9.09344 35.6821 9.09344C37.5319 9.09344 37.9791 9.31704 37.9791 10.2927C37.9791 11.3904 37.6538 11.553 35.6618 11.492C34.2999 11.4514 33.812 11.3498 33.7104 11.1262C33.2835 10.1911 33.1209 10.0082 32.755 9.94718C32.1655 9.86587 31.8199 10.3944 31.9826 11.1058C32.1858 12.0612 33.1209 12.9149 34.0966 13.0776C34.8284 13.1995 34.93 13.2808 34.93 13.7484C34.93 14.3785 35.2552 14.785 35.7837 14.785C36.17 14.785 36.5562 14.2159 36.5562 13.6061C36.5562 13.3012 36.7391 13.1792 37.3489 13.0776C37.8978 12.9962 38.3246 12.7523 38.7718 12.2441C39.3207 11.614 39.402 11.3701 39.402 10.3334C39.402 8.26003 38.345 7.46727 35.5805 7.46727C33.7714 7.46727 33.5071 7.30466 33.5071 6.22732C33.5071 5.14998 33.812 5.00769 35.8854 5.06867L37.6742 5.12965L37.8978 5.8411C38.101 6.43059 38.223 6.55255 38.7108 6.55255C39.2393 6.55255 39.3003 6.47124 39.3613 5.80045C39.4426 4.78409 38.4669 3.6661 37.3489 3.48316C36.6985 3.38152 36.5562 3.25956 36.5562 2.87334C36.5562 2.03993 35.7024 1.4911 35.1739 2.0196Z" fill="white"/>
<path d="M11.9806 9.43899C11.5944 9.78455 11.5537 10.0285 11.5131 13.0572L11.4521 16.3096L8.13879 16.4112C5.49626 16.4925 4.78482 16.5738 4.64253 16.8177C4.47991 17.0617 4.31729 19.135 4.41893 19.7245C4.43925 19.8058 4.21566 19.9481 3.9514 20.0497C3.11799 20.375 3.09766 21.1677 3.91075 21.493C4.56122 21.7369 4.58154 23.0785 3.93108 23.3224C3.11799 23.6273 3.11799 24.4404 3.91075 24.7453C4.56122 24.9892 4.58154 26.3308 3.93108 26.5747C3.11799 26.8797 3.11799 27.6927 3.91075 27.9976C4.56122 28.2416 4.58154 29.5832 3.93108 29.8271C3.11799 30.132 3.11799 30.9451 3.91075 31.25C4.56122 31.4939 4.58154 32.8355 3.93108 33.0794C3.11799 33.3843 3.11799 34.1974 3.91075 34.5023C4.56122 34.7462 4.58154 36.0878 3.93108 36.3318C3.11799 36.6367 3.11799 37.4498 3.91075 37.7547C4.23598 37.8766 4.35795 38.1002 4.3986 38.6491C4.43925 39.2589 4.37827 39.4215 3.97173 39.5638C3.13832 39.889 3.09766 40.6818 3.91075 41.007C4.23598 41.129 4.35795 41.3526 4.3986 41.9014C4.43925 42.5112 4.37827 42.6738 3.97173 42.8161C3.11799 43.1413 3.09766 43.9341 3.93108 44.2593C4.35795 44.422 4.3986 44.5439 4.41893 46.5563L4.45958 48.6907L3.82944 49.0769C3.05701 49.5241 2 51.0486 2 51.7194C2 51.9836 2.18294 52.3699 2.40654 52.5935C2.81308 53 3.07734 53 27.4699 53C49.4435 53 52.1673 52.9593 52.5739 52.6748C53.0211 52.3699 53.0211 52.3495 53.0211 45.8855C53.0211 39.5841 53.0414 39.4012 53.4276 39.2792C53.8951 39.1369 54.1594 38.3441 53.8951 37.897C53.8138 37.7343 52.8788 36.8399 51.8624 35.9252L49.972 34.2787V31.3516C49.972 28.7497 49.9313 28.4042 49.6061 28.2212C49.3825 28.0993 49.1183 28.0993 48.8947 28.2212C48.6101 28.4042 48.5491 28.7497 48.5491 30.6402C48.5491 31.8801 48.4678 32.8762 48.3865 32.8762C48.2848 32.8762 47.9596 32.6119 47.6344 32.2663C46.9026 31.4939 45.9269 31.0467 45.0122 31.0467H44.2804V23.3631C44.2804 15.3542 44.2601 15.1916 43.4063 15.1916C43.2031 15.1916 43.0608 15.1103 43.1014 15.0289C43.2437 14.6224 46.2318 11.1465 46.4148 11.1465C46.618 11.1261 49.7687 14.8257 49.7687 15.0696C49.7687 15.1306 49.6061 15.1916 49.4028 15.1916C48.5898 15.1916 48.5491 15.4965 48.5491 20.7205C48.5491 25.2535 48.5898 25.7617 48.8947 25.9446C49.1183 26.0666 49.3825 26.0666 49.6061 25.9446C49.9313 25.7617 49.972 25.3551 49.972 21.1881V16.6145H50.6834C51.5982 16.6145 52.1673 15.8827 51.7811 15.1712C51.3136 14.2768 47.0855 9.31702 46.679 9.17474C46.4757 9.11375 46.1098 9.17474 45.9066 9.33735C45.439 9.66259 41.394 14.5208 41.0484 15.1509C40.6622 15.8827 41.211 16.6145 42.1461 16.6145H42.8575V23.8306V31.0467H41.1297H39.4019V27.0829V23.1191H39.9711C40.7232 23.1191 41.3126 22.4687 41.15 21.8589C40.9468 21.1068 36.3122 15.6997 35.8243 15.6388C35.4991 15.5981 35.0722 15.9233 34.2591 16.8584C31.5963 19.8871 30.2547 21.6149 30.2547 22.0418C30.2547 22.6516 30.7832 23.1191 31.4946 23.1191H32.0841V27.0829C32.0841 30.1117 32.0232 31.0467 31.8402 31.0467C31.6979 31.0467 30.9865 31.5549 30.2547 32.185L28.9334 33.303L28.8724 24.9079C28.8318 17.4072 28.7911 16.4925 28.5066 16.2689C28.2626 16.086 28.0594 16.086 27.7951 16.2282C27.4292 16.4112 27.4089 16.8584 27.4089 25.5381V34.6446L26.0063 35.9049L24.6038 37.1448H23.2012C21.1278 37.1448 20.9042 37.3684 20.9042 39.4621C20.9042 40.4785 21.0059 41.2306 21.1481 41.3729C21.2904 41.5152 21.7783 41.6168 22.2661 41.6168H23.1402V42.4299C23.1402 43.243 23.1402 43.243 22.3474 43.243C21.1278 43.243 20.9042 43.6089 20.9042 45.479C20.9042 47.3491 21.1278 47.7149 22.3474 47.7149H23.1402V49.5444V51.3738H18.0584H12.9766V31.0467V10.7196H20.1928H27.4089V12.2441C27.4089 13.4841 27.4699 13.789 27.7748 13.9516C27.9984 14.0736 28.2626 14.0736 28.4862 13.9516C28.7708 13.789 28.8318 13.4434 28.8318 11.8782C28.8318 10.8416 28.7505 9.90651 28.6692 9.78455C28.2423 9.15441 27.5715 9.09343 20.0302 9.09343C13.0783 9.09343 12.3668 9.13408 11.9806 9.43899ZM37.4505 19.5009C38.3042 20.5376 38.9954 21.4523 38.9954 21.5336C38.9954 21.6353 38.8124 21.6962 38.5888 21.6962C37.8774 21.6962 37.7757 22.3264 37.7757 26.7577V31.0467H35.743H33.7103V26.7577C33.7103 22.5093 33.5883 21.6962 32.9989 21.6962C32.8566 21.6962 32.6736 21.6149 32.6126 21.5133C32.4907 21.31 35.4584 17.6308 35.743 17.6308C35.8243 17.6308 36.5968 18.4846 37.4505 19.5009ZM11.4521 18.9521V19.9684L8.66729 20.0294L5.86215 20.0904V18.9521V17.8138L8.66729 17.8747L11.4521 17.9357V18.9521ZM11.4521 22.4077V23.2208L8.66729 23.2818L5.86215 23.3427V22.4077V21.4726L8.66729 21.5336L11.4521 21.5946V22.4077ZM11.4521 25.66V26.4731L8.66729 26.5341L5.86215 26.5951V25.66V24.725L8.66729 24.786L11.4521 24.8469V25.66ZM11.4521 28.9124V29.7255L8.66729 29.7864L5.86215 29.8474V28.9124V27.9773L8.66729 28.0383L11.4521 28.0993V28.9124ZM11.4521 32.1647V32.9778L8.66729 33.0388L5.86215 33.0998V32.1647V31.2297L8.66729 31.2906L11.4521 31.3516V32.1647ZM48.4271 34.9902C49.911 36.2708 51.2323 37.4701 51.3746 37.6327C51.6185 37.9376 51.09 37.9579 45.7846 37.9579H39.9101L36.9626 35.3967C35.3365 33.9941 33.9746 32.7948 33.9339 32.7542C33.8932 32.7135 36.5154 32.6729 39.8084 32.6729H45.744L48.4271 34.9902ZM35.804 36.4131L38.7921 39.0149V45.1944V51.3738H37.1659H35.5397V49.7477C35.5397 48.4061 35.4788 48.1012 35.1739 47.9385C34.9503 47.8166 34.686 47.8166 34.4624 47.9385C34.1778 48.1012 34.1168 48.4467 34.1168 49.7477V51.3738H31.7792H29.4416V47.1051V42.8364H31.7792H34.1168V44.1577C34.1168 45.5806 34.4421 46.0481 35.1739 45.6619C35.4788 45.4993 35.5397 45.1944 35.5397 43.8121C35.5397 41.3932 35.5804 41.4135 31.7589 41.4135C29.218 41.4135 28.6082 41.4745 28.3439 41.7388C28.0594 42.003 28.0187 42.7551 28.0187 46.7189V51.3738H26.3925H24.7664V45.1944V38.9946L28.2626 35.9455L31.7589 32.8762L32.2874 33.3437C32.572 33.6079 34.1372 34.9902 35.804 36.4131ZM11.4521 35.417V36.2301L8.66729 36.2911L5.86215 36.3521V35.417V34.482L8.66729 34.543L11.4521 34.604V35.417ZM11.4521 38.6694V39.4825L8.66729 39.5434L5.86215 39.6044V38.6694V37.7343L8.66729 37.7953L11.4521 37.8563V38.6694ZM23.1809 39.4825C23.1199 40.011 22.9979 40.1939 22.7133 40.1939C22.4084 40.1939 22.3271 40.0516 22.3271 39.4825C22.3271 38.8727 22.3881 38.771 22.7946 38.771C23.2012 38.771 23.2622 38.8523 23.1809 39.4825ZM51.5575 40.7427L51.4965 42.125L47.5531 42.186C45.0528 42.2063 43.508 42.3079 43.325 42.4502C43.1421 42.6128 43.0608 43.3649 43.0608 45.1944C43.0608 47.471 43.1014 47.7149 43.447 47.9182C43.6909 48.0402 45.439 48.1215 47.7157 48.1215H51.5982V49.7477V51.3738H45.9066H40.215V45.5196C40.215 42.2876 40.276 39.5841 40.3573 39.5231C40.4183 39.4418 42.9998 39.3808 46.0489 39.3808H51.6185L51.5575 40.7427ZM11.5131 41.9624L11.5741 42.8364H8.72828H5.86215V41.9217V40.9867L8.66729 41.0477L11.4521 41.1086L11.5131 41.9624ZM45.9066 45.0724V46.4953H45.1951H44.4837V45.0724V43.6495H45.1951H45.9066V45.0724ZM51.5982 45.0724V46.4953H49.5655H47.5327V45.0724V43.6495H49.5655H51.5982V45.0724ZM11.5131 44.7878C11.5741 45.1741 11.4318 45.2757 10.5577 45.479C9.27711 45.7839 8.11846 46.597 7.61028 47.5523C7.26472 48.1825 7.12243 48.2841 6.53295 48.2638L5.86215 48.2435V46.3937C5.86215 45.357 5.92313 44.4626 6.00444 44.3813C6.08575 44.3203 7.34603 44.2797 8.78926 44.3C11.3301 44.361 11.4521 44.3813 11.5131 44.7878ZM23.1402 45.479C23.1402 45.9465 23.0589 46.0888 22.7337 46.0888C22.4084 46.0888 22.3271 45.9465 22.3271 45.479C22.3271 45.0114 22.4084 44.8692 22.7337 44.8692C23.0589 44.8692 23.1402 45.0114 23.1402 45.479ZM11.5537 49.1378V51.3738H7.69159C5.39463 51.3738 3.82944 51.2925 3.82944 51.1909C3.82944 51.0689 4.175 50.7234 4.58154 50.4185C5.23201 49.9103 5.49626 49.8493 6.75655 49.8493H8.17944L8.68762 48.8329C9.25678 47.7556 10.2935 46.9019 11.0659 46.9019C11.5537 46.9019 11.5537 46.9222 11.5537 49.1378Z" fill="white"/>
<path d="M15.4565 13.4028C15.3143 13.5451 15.2126 14.2972 15.2126 15.3136C15.2126 17.3869 15.4362 17.6309 17.4079 17.6309C18.4853 17.6309 18.7699 17.5496 19.1764 17.1227C19.6033 16.7161 19.6846 16.4316 19.6846 15.3542C19.6846 13.3825 19.4407 13.1589 17.3673 13.1589C16.3509 13.1589 15.5988 13.2605 15.4565 13.4028ZM18.0584 15.2932C18.0584 15.964 18.0178 16.0047 17.347 16.0047C16.6762 16.0047 16.6355 15.964 16.6355 15.2932C16.6355 14.6224 16.6762 14.5818 17.347 14.5818C18.0178 14.5818 18.0584 14.6224 18.0584 15.2932Z" fill="white"/>
<path d="M21.1481 13.4028C21.0058 13.5451 20.9042 14.2972 20.9042 15.3339C20.9042 16.899 20.9449 17.0413 21.4124 17.3462C22.1442 17.8341 24.685 17.6715 25.0916 17.1226C25.5388 16.5128 25.4778 13.9313 25.0103 13.5044C24.5428 13.0775 21.5343 13.0166 21.1481 13.4028ZM23.75 15.2932C23.75 15.964 23.7093 16.0046 23.0386 16.0046C22.3678 16.0046 22.3271 15.964 22.3271 15.2932C22.3271 14.6224 22.3678 14.5817 23.0386 14.5817C23.7093 14.5817 23.75 14.6224 23.75 15.2932Z" fill="white"/>
<path d="M15.5581 19.4196C15.1312 19.8871 15.0703 22.8955 15.4565 23.2817C15.5988 23.424 16.3509 23.5256 17.3875 23.5256C18.9527 23.5256 19.095 23.485 19.3999 23.0175C19.8878 22.2857 19.7252 19.7448 19.1763 19.3382C18.5665 18.8911 15.985 18.952 15.5581 19.4196ZM18.0583 21.3913C18.0583 22.0621 18.0177 22.1027 17.3469 22.1027C16.6761 22.1027 16.6354 22.0621 16.6354 21.3913C16.6354 20.7205 16.6761 20.6798 17.3469 20.6798C18.0177 20.6798 18.0583 20.7205 18.0583 21.3913Z" fill="white"/>
<path d="M21.3514 19.3789C20.9449 19.6635 20.9042 19.8668 20.9042 21.371C20.9042 22.3873 21.0058 23.1394 21.1481 23.2817C21.2904 23.424 22.0425 23.5256 23.0589 23.5256C25.1526 23.5256 25.3762 23.302 25.3762 21.249C25.3762 20.131 25.2949 19.7854 24.9696 19.4602C24.4411 18.9317 22.0629 18.8707 21.3514 19.3789ZM23.75 21.3913C23.75 22.0621 23.7093 22.1027 23.0386 22.1027C22.3678 22.1027 22.3271 22.0621 22.3271 21.3913C22.3271 20.7205 22.3678 20.6798 23.0386 20.6798C23.7093 20.6798 23.75 20.7205 23.75 21.3913Z" fill="white"/>
<path d="M15.5785 25.3754C15.2736 25.538 15.2126 25.8836 15.2126 27.3878C15.2126 29.5628 15.2736 29.6238 17.4283 29.6238C19.3797 29.6238 19.6846 29.3189 19.6846 27.4285C19.6846 25.3957 19.4407 25.1518 17.4893 25.1518C16.6355 25.1518 15.7614 25.2534 15.5785 25.3754ZM18.0584 27.3878C18.0584 27.957 17.9974 27.9976 17.347 27.9976C16.6965 27.9976 16.6355 27.957 16.6355 27.3878C16.6355 26.8186 16.6965 26.778 17.347 26.778C17.9974 26.778 18.0584 26.8186 18.0584 27.3878Z" fill="white"/>
<path d="M21.2294 25.477C20.9855 25.7006 20.9042 26.2088 20.9042 27.3878C20.9042 29.4815 21.0465 29.6238 23.1402 29.6238C25.1322 29.6238 25.3762 29.3799 25.3762 27.3878C25.3762 25.3957 25.1322 25.1518 23.1402 25.1518C21.9612 25.1518 21.453 25.2331 21.2294 25.477ZM23.75 27.3878C23.75 27.957 23.689 27.9976 23.0386 27.9976C22.3881 27.9976 22.3271 27.957 22.3271 27.3878C22.3271 26.8186 22.3881 26.778 23.0386 26.778C23.689 26.778 23.75 26.8186 23.75 27.3878Z" fill="white"/>
<path d="M15.4565 31.4939C15.3143 31.6362 15.2126 32.3883 15.2126 33.425C15.2126 34.9902 15.2533 35.1325 15.7208 35.4374C16.3103 35.8236 18.9122 35.7626 19.3187 35.3561C19.7252 34.9495 19.7862 32.3477 19.4 31.7582C19.0951 31.2907 18.9528 31.25 17.3876 31.25C16.3509 31.25 15.5988 31.3516 15.4565 31.4939ZM18.0584 33.3844C18.0584 34.0552 18.0178 34.0958 17.347 34.0958C16.6762 34.0958 16.6355 34.0552 16.6355 33.3844C16.6355 32.7136 16.6762 32.6729 17.347 32.6729C18.0178 32.6729 18.0584 32.7136 18.0584 33.3844Z" fill="white"/>
<path d="M21.1481 31.4939C21.0058 31.6362 20.9042 32.3883 20.9042 33.4046C20.9042 35.4983 21.1278 35.7219 23.1808 35.7219C25.0916 35.7219 25.3762 35.417 25.3762 33.425C25.3762 31.4329 25.1729 31.25 23.0182 31.25C22.0222 31.25 21.2904 31.3516 21.1481 31.4939ZM23.75 33.3843C23.75 34.0551 23.7093 34.0958 23.0386 34.0958C22.3678 34.0958 22.3271 34.0551 22.3271 33.3843C22.3271 32.7135 22.3678 32.6729 23.0386 32.6729C23.7093 32.6729 23.75 32.7135 23.75 33.3843Z" fill="white"/>
<path d="M15.6598 37.4701C15.2533 37.7547 15.2126 37.9579 15.2126 39.4621C15.2126 40.4785 15.3143 41.2306 15.4565 41.3729C15.5988 41.5152 16.3509 41.6168 17.3876 41.6168C18.9528 41.6168 19.0951 41.5762 19.4 41.1086C19.8879 40.3769 19.7252 37.836 19.1764 37.4294C18.6276 37.0229 16.2493 37.0432 15.6598 37.4701ZM18.0584 39.4825C18.0584 40.1533 18.0178 40.1939 17.347 40.1939C16.6762 40.1939 16.6355 40.1533 16.6355 39.4825C16.6355 38.8117 16.6762 38.771 17.347 38.771C18.0178 38.771 18.0584 38.8117 18.0584 39.4825Z" fill="white"/>
<path d="M15.5785 43.4666C15.2736 43.6292 15.2126 43.9748 15.2126 45.479C15.2126 47.654 15.2736 47.715 17.4283 47.715C19.4 47.715 19.6846 47.4304 19.6846 45.479C19.6846 43.5276 19.4 43.243 17.4079 43.243C16.5949 43.243 15.7614 43.3446 15.5785 43.4666ZM18.0584 45.479C18.0584 46.0481 17.9974 46.0888 17.347 46.0888C16.6965 46.0888 16.6355 46.0481 16.6355 45.479C16.6355 44.9098 16.6965 44.8692 17.347 44.8692C17.9974 44.8692 18.0584 44.9098 18.0584 45.479Z" fill="white"/>
</svg>
