<svg width="55" height="55" viewBox="0 0 55 55" fill="none" xmlns="http://www.w3.org/2000/svg">
<path d="M32.4159 1.52813C32.1722 1.83281 31.9894 2.36094 31.9894 2.74688V3.41719L30.0191 2.50313C28.9222 2.01562 27.7238 1.60938 27.3378 1.60938C26.9113 1.60938 24.1894 2.70625 19.6394 4.69688C11.9816 8.08906 11.88 8.15 11.88 9.81563C11.88 10.425 12.0222 10.7297 12.5706 11.2781C13.1597 11.8672 13.4034 11.9688 14.1956 11.9688H15.13L15.1706 19.525L15.2316 27.1016L17.6284 27.1625C20.005 27.2234 20.0253 27.2234 19.8628 27.6703C19.7816 27.9141 19.7003 28.95 19.7003 29.9453C19.7003 31.6109 19.7613 31.9156 20.3706 33.1344C21.2034 34.8203 22.8081 36.3438 24.4331 36.9734C26.0581 37.6234 28.5769 37.6234 30.2019 36.9734C31.3394 36.5266 33.2284 35.0438 33.6347 34.2719C33.9191 33.7234 33.6753 33.0938 33.1675 33.0938C32.9238 33.0938 32.355 33.4797 31.8675 33.9875C30.4456 35.4906 29.5722 35.8359 27.3175 35.8359C25.7331 35.8359 25.2456 35.7547 24.5753 35.3891C20.8581 33.3984 19.9847 28.6656 22.7472 25.6188C25.1238 22.9578 29.5113 22.9578 31.8878 25.6188C33.0456 26.8984 33.4925 28.0563 33.4925 29.9047C33.5128 31.1641 33.5738 31.5297 33.8581 31.6922C34.3253 31.9563 34.8128 31.7125 34.955 31.1438C35.0972 30.5547 34.955 28.0563 34.7519 27.5688C34.6097 27.2438 34.8128 27.2031 37.0066 27.1625L39.4034 27.1016L39.4644 19.525L39.505 11.9688H40.4394C42.2878 11.9688 43.3644 10.0188 42.3894 8.41406C42.105 7.96719 41.4347 7.56094 39.5253 6.6875L37.0472 5.57031L37.0066 3.72188C36.9456 1.18282 36.7831 1 34.5081 1C32.9441 1 32.8019 1.04063 32.4159 1.52813ZM35.4425 3.74219C35.4425 4.35156 35.4019 4.85938 35.3409 4.85938C35.28 4.85938 34.8534 4.67656 34.4269 4.45312C33.7159 4.0875 33.6144 3.94531 33.6144 3.33594C33.6144 2.625 33.6144 2.625 34.5284 2.625H35.4425V3.74219ZM34.1831 6.01719C38.0019 7.70313 41.0284 9.16563 41.1503 9.34844C41.3941 9.79531 41.1909 10.3031 40.7238 10.4453C40.5003 10.5266 37.8394 9.45 33.8378 7.68281L27.3175 4.81875L20.7972 7.68281C16.7956 9.45 14.1347 10.5266 13.9113 10.4453C13.4441 10.3031 13.2409 9.79531 13.4847 9.36875C13.6472 9.08438 26.6269 3.1125 27.2159 3.05156C27.3175 3.03125 30.4659 4.37188 34.1831 6.01719ZM32.9644 8.9625L38.0831 11.2375V18.5094V25.7812H36.1128H34.1628L33.0659 24.6234L31.9894 23.4453V20.5C31.9894 18.4688 31.9081 17.4531 31.7456 17.2906C31.5628 17.1078 30.3034 17.0469 27.3175 17.0469C24.3316 17.0469 23.0722 17.1078 22.8894 17.2906C22.7269 17.4531 22.6456 18.4688 22.6456 20.5V23.4453L21.5691 24.6234L20.4722 25.7812H18.5222H16.5519V18.5094V11.2375L21.8941 8.86094C24.8191 7.56094 27.3581 6.54531 27.5206 6.60625C27.6831 6.66719 30.1409 7.72344 32.9644 8.9625ZM30.3644 20.6219V22.5719L29.8159 22.4094C29.4909 22.3078 28.3738 22.2266 27.3175 22.2266C26.2613 22.2266 25.1441 22.3078 24.8394 22.4094L24.2706 22.5719V20.6219V18.6719H27.3175H30.3644V20.6219Z" fill="white"/>
<path d="M5.27847 12.8625C4.46597 13.2078 3.61284 14.2234 2.98315 15.5844C2.59722 16.4578 2.37378 17.6766 1.86597 21.9422C1.05347 28.7063 0.992529 28.4016 4.24253 35.5922C6.49722 40.6297 7.00503 42.1125 7.00503 43.9C7.00503 44.3672 6.92378 44.4688 6.4769 44.4688C6.17222 44.4688 5.70503 44.7125 5.35972 45.0578L4.77065 45.6469V48.7344V51.8219L5.35972 52.4109L5.94878 53H8.67065C11.4738 53 11.88 52.8984 11.88 52.1469C11.88 51.5375 11.1894 51.375 8.7519 51.375H6.39565V48.7344V46.0938H13.2003H20.005V48.7344V51.375H17.2222C14.0535 51.375 13.566 51.4563 13.4035 52.025C13.1191 52.8781 13.5457 53 17.08 53C20.2894 53 20.4113 52.9797 20.9597 52.5125L21.5285 52.025V48.775C21.5285 45.1797 21.4269 44.8344 20.1878 44.5703L19.5988 44.4281V41.9906C19.5988 40.65 19.4769 39.1672 19.355 38.7203C19.091 37.8266 17.8925 36.5063 16.755 35.8359C16.2269 35.5312 15.7597 34.9016 14.9066 33.2969C13.7488 31.1438 13.0785 30.4531 12.1441 30.4531C11.7175 30.4531 11.6769 30.3516 11.6769 29.5188C11.6769 28.7469 11.7785 28.4828 12.3472 27.9547C12.6925 27.5891 13.1597 27.0813 13.3425 26.7969C13.83 26.1063 13.8097 24.6438 13.3019 23.7906C12.8144 22.9984 11.291 22.2266 10.5394 22.4094C9.86909 22.5922 9.93003 22.2672 10.6613 21.6375C11.9003 20.6016 12.205 19.3016 11.4738 18.1031C10.9863 17.3109 9.82847 16.7625 8.97534 16.925C8.46753 17.0266 8.40659 16.9859 8.54878 16.6813C8.63003 16.4984 8.73159 15.9094 8.79253 15.3813C8.89409 14.2234 8.34565 13.2891 7.2894 12.8625C6.45659 12.5172 6.07065 12.5172 5.27847 12.8625ZM7.04565 14.5484C7.57378 15.0359 7.49253 15.5031 6.70034 16.6813C6.3144 17.25 5.94878 17.9 5.88784 18.1438C5.84722 18.3672 5.70503 20.1547 5.58315 22.0641C5.42065 24.6641 5.42065 25.8016 5.60347 26.4313C5.84722 27.4062 11.1285 37.4609 11.6769 38.05C11.9613 38.3547 12.1035 38.375 12.4691 38.1922C12.6925 38.05 12.8957 37.8266 12.8957 37.6438C12.8957 37.4813 12.4082 36.4047 11.7988 35.2469C10.641 33.0328 10.5597 32.4641 11.3316 32.0578C12.0222 31.6719 12.6113 32.1391 13.4238 33.7234C14.5207 35.9375 15.1097 36.7297 16.0441 37.2578C17.791 38.2938 17.8519 38.4563 17.9738 41.6453L18.0753 44.4688H13.2613H8.4269V43.1891C8.4269 41.3609 8.1019 40.4062 5.78628 35.3281C4.64878 32.8094 3.53159 30.2297 3.32847 29.5797C2.82065 27.9953 2.84097 26.5328 3.45034 21.4141C3.85659 18.1438 4.08003 16.925 4.44565 16.1328C5.29878 14.325 6.19253 13.7766 7.04565 14.5484ZM10.1128 18.8953C10.5191 19.4438 10.3363 20.0125 9.62534 20.5203C8.77222 21.1094 8.44722 21.9016 8.12222 24.0141C7.95972 25.05 7.75659 26.2078 7.69565 26.5938L7.55347 27.3047L7.2894 26.6953C7.00503 26.0453 6.9644 23.9328 7.16753 21.1094L7.30972 19.4031L8.12222 18.9359C9.13784 18.3672 9.74722 18.3469 10.1128 18.8953ZM11.8597 24.4813C12.4894 25.2734 12.3878 25.6797 11.3722 26.7359C10.4582 27.7109 10.0519 28.7875 10.0519 30.3516C10.0519 31.3469 9.7269 31.3875 9.2394 30.4531C8.83315 29.6406 8.81284 29.6 9.17847 27.1625C9.54409 24.4609 9.80815 23.9531 10.8441 23.9531C11.2503 23.9531 11.5753 24.1359 11.8597 24.4813Z" fill="white"/>
<path d="M47.305 12.8625C46.2894 13.3094 45.7409 14.2437 45.8425 15.3812C45.9034 15.9094 46.005 16.4984 46.0863 16.6812C46.2284 16.9859 46.1675 17.0266 45.6597 16.925C44.2581 16.6406 42.755 17.9812 42.755 19.4844C42.755 20.2766 43.1409 20.9469 44.0144 21.6781C44.705 22.2672 44.7456 22.5719 44.0956 22.4094C43.3441 22.2266 41.8206 22.9984 41.3331 23.7906C40.8253 24.6437 40.805 26.1062 41.2925 26.7969C41.4753 27.0812 41.9425 27.5891 42.3081 27.9547C42.8566 28.4828 42.9581 28.7469 42.9581 29.5187C42.9581 30.3516 42.9175 30.4531 42.5113 30.4531C41.5566 30.4531 40.8863 31.1437 39.7284 33.2969C38.8753 34.9016 38.4081 35.5312 37.88 35.8359C36.7425 36.5062 35.5441 37.8266 35.28 38.7203C35.1581 39.1672 35.0363 40.65 35.0363 41.9906V44.4281L34.4472 44.5703C33.2081 44.8344 33.1066 45.1797 33.1066 48.775V52.025L33.6753 52.5125L34.2441 53H41.455H48.6863L49.2753 52.4109L49.8644 51.8219V48.775C49.8644 46.0328 49.8238 45.6875 49.4581 45.2203C49.2144 44.9156 48.7269 44.6312 48.3409 44.55C47.7316 44.4484 47.63 44.3469 47.63 43.8797C47.63 42.1125 48.1378 40.6094 50.3925 35.5922C53.2972 29.1531 53.48 28.4016 53.1144 24.7656C52.8097 21.8 52.6878 21.475 51.9363 21.5562C51.3066 21.6172 51.3066 21.5156 51.5909 25.6797C51.7941 28.7672 51.7331 28.9297 48.93 35.125C46.5331 40.4266 46.2081 41.3609 46.2081 43.1891V44.4688H41.3941H36.5597L36.6206 41.7875C36.6816 38.6797 36.7628 38.4969 38.4691 37.3594C39.6472 36.5672 39.9925 36.1203 41.13 33.8656C42.0034 32.1594 42.5316 31.7125 43.2628 32.0375C44.0956 32.4234 44.0144 32.9922 42.8363 35.2469C42.2269 36.4047 41.7394 37.4812 41.7394 37.6437C41.7394 37.8266 41.9425 38.05 42.1659 38.1922C42.5316 38.375 42.6738 38.3547 42.9581 38.05C43.5066 37.4609 48.7878 27.4062 49.0316 26.4312C49.2144 25.8016 49.2144 24.6641 49.0519 22.0641C48.93 20.1547 48.7878 18.3672 48.7472 18.1437C48.6863 17.9 48.3206 17.25 47.9347 16.6812C47.1425 15.5031 47.0613 15.0359 47.5894 14.5484C48.7675 13.4719 50.2503 15.1781 50.7784 18.225C51.0831 20.0125 51.5097 20.4594 52.18 19.7891C52.5456 19.4234 52.4644 18.2859 51.9769 16.5187C51.6519 15.3406 50.6363 13.7156 49.8644 13.1469C49.1738 12.6391 48.0769 12.5172 47.305 12.8625ZM46.5128 18.9359L47.3253 19.4031L47.4675 21.1094C47.6706 23.9328 47.63 26.0453 47.3456 26.6953L47.0816 27.3047L46.9394 26.5937C46.8784 26.2078 46.6753 25.05 46.5128 24.0141C46.1878 21.9016 45.8628 21.1094 45.0097 20.5203C44.2988 20.0125 44.1159 19.4437 44.5222 18.8953C44.8878 18.3469 45.4972 18.3672 46.5128 18.9359ZM44.7456 24.3187C45.0097 24.5828 45.2128 25.3953 45.4566 27.1625C45.8222 29.6 45.8019 29.6406 45.3956 30.4531C44.9081 31.3875 44.5831 31.3469 44.5831 30.3516C44.5831 28.7875 44.1769 27.7109 43.2628 26.7359C42.2472 25.6797 42.1456 25.2734 42.7753 24.4812C43.2628 23.8516 44.1972 23.7703 44.7456 24.3187ZM48.2394 48.7344V51.375H41.4347H34.63V48.7344V46.0937H41.4347H48.2394V48.7344Z" fill="white"/>
<path d="M26.8707 25.1923C26.6676 25.2939 26.5051 25.497 26.5051 25.6189C26.5051 25.7407 26.2207 26.0861 25.8754 26.3704C25.1645 26.9798 24.8801 28.2595 25.2863 29.0111C25.4082 29.2751 26.0988 29.7423 26.8098 30.0673C28.2317 30.7376 28.4348 31.022 28.0082 31.6517C27.6629 32.1392 26.7285 32.2204 26.0988 31.8345C25.591 31.5095 25.002 31.8142 24.9207 32.4642C24.8598 32.8095 25.0223 32.972 25.652 33.2564C26.0785 33.4392 26.5254 33.7845 26.627 34.0079C26.9317 34.6782 27.6426 34.6376 28.0082 33.947C28.1707 33.622 28.4551 33.297 28.6379 33.2361C28.8004 33.1548 29.1254 32.8095 29.3488 32.4439C30.1613 31.1032 29.7145 29.7423 28.252 29.0517C27.7442 28.8282 27.2363 28.6251 27.1348 28.6251C27.0332 28.6251 26.8504 28.4829 26.7082 28.3204C26.241 27.772 26.8098 27.4064 28.1504 27.4064C29.1457 27.4064 29.3488 27.3454 29.4504 27.0001C29.5926 26.5329 29.2473 25.9845 28.8207 25.9845C28.6785 25.9845 28.3129 25.7611 28.0082 25.4767C27.3988 24.9079 27.3582 24.9079 26.8707 25.1923Z" fill="white"/>
</svg>
