<svg width="55" height="55" viewBox="0 0 55 55" fill="none" xmlns="http://www.w3.org/2000/svg">
<path d="M26.5694 1.95893C25.7356 2.30465 21.9124 5.19235 21.7904 5.51773C21.6481 5.94478 22.0344 6.47352 22.4615 6.47352C22.6242 6.47352 23.7223 5.78209 24.8815 4.94832C26.0406 4.11455 27.1794 3.42312 27.4031 3.42312C27.6065 3.42312 30.3315 5.23302 33.4429 7.44964C38.6286 11.1508 39.0963 11.5372 39.0963 12.0862C39.0963 13.3674 38.4252 13.042 32.8125 9.01551C29.9045 6.94124 27.4845 5.25336 27.4031 5.25336C27.3218 5.25336 24.9018 6.94124 21.9938 9.01551C16.4217 13.0217 15.7913 13.3471 15.649 12.1472C15.588 11.6592 15.8523 11.3948 18.0283 9.82895C19.9805 8.4461 20.4889 7.97838 20.4889 7.592C20.4889 7.0836 19.8788 6.73788 19.4314 7.00225C18.0283 7.81569 14.4085 10.6221 14.2254 11.0491C13.5137 12.615 14.7135 14.4045 16.5031 14.4045H17.2352L17.1945 19.5292L17.1335 24.6742L16.4217 24.7352C15.9947 24.7759 14.4695 24.3895 12.5579 23.7794L9.40582 22.783L9.28381 21.9492C9.2228 21.4814 9.08045 21.0137 8.97877 20.912C8.83642 20.7697 7.6366 20.729 5.92838 20.7494L3.10168 20.8104L3.04067 24.7759C3 28.2737 3.02034 28.7617 3.32538 28.9854C3.56941 29.1684 3.77277 29.1684 4.03713 29.0261C4.38284 28.8431 4.42352 28.538 4.42352 25.4876V22.1322H6.05039H7.67727V30.0632V37.9942H6.05039H4.42352V34.6388C4.42352 31.6494 4.38284 31.2834 4.05747 31.1004C3.83377 30.9783 3.56941 30.9783 3.34571 31.1004C3.04067 31.2834 3 31.7308 3 35.2082C3 37.9942 3.06101 39.1941 3.24403 39.3771C3.40672 39.5398 4.32184 39.6211 6.05039 39.6211C8.28735 39.6211 8.67373 39.5804 8.95843 39.2551C9.16179 39.0517 9.30414 38.7263 9.30414 38.5433C9.30414 38.3603 9.38549 38.1976 9.46683 38.1976C9.89389 38.1976 10.5446 39.2551 11.0124 40.7396C11.2971 41.6344 11.6224 42.4885 11.7241 42.6512C11.8461 42.8545 11.7851 43.2206 11.5004 43.7697C10.5446 45.6406 11.9071 47.9589 13.9814 47.9589C14.5508 47.9589 14.7542 48.0809 15.0389 48.5486C15.4863 49.362 16.259 49.8298 17.3368 49.9518C18.0893 50.0331 18.313 50.1551 18.618 50.6839C19.3094 51.843 20.9973 52.3514 22.1768 51.721C22.6852 51.4566 22.7665 51.477 23.2139 51.9244C23.4783 52.1887 24.068 52.5141 24.5358 52.6565C25.2272 52.8598 25.4916 52.8598 26.2033 52.5751L27.0574 52.2497L28.2979 52.9818C29.9248 53.9376 30.9619 54.0596 32.0601 53.4292C32.8125 53.0225 33.7073 51.7413 33.7073 51.0906C33.7073 50.9889 34.1343 50.9279 34.6631 50.9686C35.4155 51.0296 35.8019 50.9279 36.3306 50.5619C37.3271 49.8908 37.8151 49.118 37.8558 48.2232C37.8762 47.5318 37.9575 47.4098 38.6896 47.0437C39.7064 46.5353 40.4181 45.4982 40.4181 44.5017C40.4181 43.8307 40.4995 43.7086 40.9672 43.5866C42.4721 43.2206 43.3872 41.8174 43.2042 40.1905C43.1025 39.4788 43.1432 39.2144 43.3465 39.2144C43.4889 39.2144 44.0379 38.9907 44.5463 38.7263C45.4005 38.2993 45.5021 38.2993 45.5021 38.6043C45.5021 38.7873 45.6648 39.0924 45.8682 39.2754C46.3766 39.7431 51.2165 39.7838 51.5826 39.3364C51.7453 39.1534 51.7859 36.5097 51.7656 29.9412L51.7046 20.8104L48.8576 20.7494C45.6852 20.6883 45.5021 20.7697 45.5021 22.0712C45.5021 22.6813 45.4411 22.7423 44.648 22.9456C44.16 23.0677 42.8381 23.4337 41.679 23.7591C40.5198 24.0845 39.137 24.4098 38.5879 24.4912L37.5914 24.6132L37.5304 22.1119L37.4694 19.5902H36.8594H36.2493L36.1883 22.1729L36.1273 24.7759H34.3377C33.3412 24.7759 32.2431 24.7149 31.8974 24.6539L31.267 24.5115V22.0102C31.267 19.7326 31.2263 19.4885 30.8806 19.2852C30.3519 19.0208 24.4544 19.0208 23.9257 19.2852C23.58 19.4885 23.5393 19.7326 23.5393 22.2746V25.0199L23.0919 24.8776C22.8276 24.7962 21.7294 24.6742 20.6516 24.6335L18.6587 24.5318V18.8988V13.2861L23.0309 10.1543L27.4031 7.04292L31.7754 10.1543L36.1476 13.2861V15.2383C36.1476 16.7838 36.2086 17.2516 36.473 17.4753C36.6967 17.6583 36.8797 17.6786 37.1237 17.5159C37.3881 17.3736 37.4898 16.9465 37.5304 15.8484L37.5914 14.4045H38.3032C39.32 14.4045 40.1945 13.8758 40.5402 13.0827C41.1502 11.6185 40.8045 10.8457 38.954 9.52391L37.5914 8.50711L37.5304 6.02613L37.4694 3.5248L35.4562 3.46379C33.2396 3.40279 32.8938 3.54514 32.8938 4.46026C32.8938 4.78563 32.8532 5.05 32.7922 5.05C32.7312 5.05 31.7347 4.35858 30.5552 3.50447C28.3996 1.95893 27.4031 1.57255 26.5694 1.95893ZM36.1476 6.18881V7.51065L35.3342 6.94124C34.6427 6.45318 34.5207 6.27016 34.5207 5.59907C34.5207 4.84664 34.5207 4.84664 35.3342 4.84664H36.1476V6.18881ZM29.8028 22.4576L29.7418 24.1861L28.3996 24.2471C27.6268 24.2878 26.671 24.4912 26.1016 24.7555C25.5526 24.9792 25.0848 25.1826 25.0442 25.1826C25.0035 25.1826 24.9628 24.1658 24.9628 22.9456V20.7087H27.4031H29.8638L29.8028 22.4576ZM50.3828 30.0632V37.9942H48.7559H47.129V30.0632V22.1322H48.7559H50.3828V30.0632ZM12.5376 25.386L15.2219 26.2197L18.618 26.1587C23.3766 26.0774 23.4376 26.1384 20.1229 28.0906C17.0521 29.9005 16.6251 30.3886 16.6251 32.1375C16.6251 33.5407 17.1945 34.4558 18.4553 35.1065C19.7568 35.7776 20.5093 35.6149 23.3563 34.0287L25.7966 32.6662L27.0574 33.7237C29.3147 35.5743 31.3687 36.347 34.419 36.4487C36.0459 36.4894 36.0663 36.5097 38.5879 37.9739C39.9911 38.7873 41.2519 39.5804 41.4146 39.7228C41.8417 40.1499 41.7807 41.2073 41.2723 41.6954C40.6215 42.3665 39.8691 42.2038 37.5711 40.8616C35.2121 39.4788 34.6224 39.3771 34.6224 40.3125C34.6224 40.8616 34.8054 41.0243 36.351 41.9191C39.0963 43.4849 39.4624 44.0544 38.5676 45.1932C37.9168 46.0269 37.1847 45.8846 34.8054 44.5017C32.5888 43.2002 32.2838 43.0986 31.877 43.5866C31.4297 44.1154 31.8567 44.6034 33.8496 45.7219C36.1273 47.0031 36.5747 47.5521 36.1679 48.5283C36.0256 48.874 35.6595 49.24 35.3138 49.3824C34.7648 49.6264 34.5817 49.5451 32.6905 48.4876C31.5517 47.8572 30.5145 47.3488 30.3519 47.3488C30.1892 47.3488 29.9655 47.5318 29.8435 47.7758C29.5588 48.2842 29.7824 48.6096 31.0026 49.3214C32.3448 50.0941 32.4465 51.599 31.206 52.1887C30.6772 52.4328 30.5145 52.4124 29.5181 51.904C27.9725 51.1313 27.9115 51.0092 28.5216 49.9721C29.1724 48.813 29.213 47.4301 28.603 46.6574C28.0742 45.9863 27.1794 45.5185 26.427 45.5185C25.8983 45.5185 25.7966 45.4372 25.6949 44.8271C25.6136 44.3797 25.2882 43.8917 24.8408 43.5053C24.2714 42.9969 23.9664 42.8749 23.1733 42.8749C22.2785 42.8749 22.1768 42.8139 21.9734 42.2648C21.6887 41.492 20.5906 40.8413 19.5738 40.8413C18.862 40.8413 18.7197 40.7599 18.496 40.2312C18.0689 39.2957 17.0928 38.706 15.954 38.706C15.0592 38.706 14.8965 38.7873 14.2254 39.5194C13.8187 39.9668 13.3307 40.5566 13.1476 40.8413C12.8223 41.3293 12.8223 41.3293 12.3545 39.9262C11.7648 38.1569 11.3784 37.5672 10.2193 36.8351L9.30414 36.2657V30.2869C9.30414 25.4063 9.34482 24.3488 9.56851 24.4302C9.7312 24.4912 11.053 24.9182 12.5376 25.386ZM45.4615 30.4089L45.4005 36.4487L44.4853 37.0181C43.9769 37.3232 43.1228 37.6689 42.5738 37.7705C41.5976 37.9536 41.5773 37.9536 38.9946 36.4487C36.4526 34.9642 36.3916 34.9438 34.9884 34.9438C31.8974 34.9438 29.7621 34.1304 27.5658 32.0968C26.8134 31.4257 26.122 30.8767 25.9796 30.8767C25.8576 30.8767 24.5764 31.5681 23.1326 32.4019C20.1432 34.1507 19.5738 34.2728 18.6383 33.3373C17.9673 32.6662 17.8656 31.8324 18.3536 31.141C18.679 30.6936 24.9628 26.9315 26.6914 26.1791C27.7692 25.7113 28.3793 25.7113 32.3854 26.1994C35.3952 26.5858 38.6082 26.2401 42.5534 25.1012C43.8956 24.7149 45.1158 24.3895 45.2581 24.3895C45.4615 24.3692 45.5021 25.6503 45.4615 30.4089ZM16.8691 40.7803C17.0725 40.9633 17.2352 41.2887 17.2352 41.5124C17.2352 41.9801 15.1812 45.7219 14.7135 46.1083C14.2254 46.515 13.107 46.2913 12.8426 45.7422C12.5376 45.1322 12.6596 44.7864 14.1034 42.3258C15.1406 40.5769 15.2626 40.4346 15.8523 40.4346C16.198 40.4346 16.6658 40.5769 16.8691 40.7803ZM20.3262 42.8139C20.916 43.3426 20.7533 44.034 19.5331 46.149C18.2113 48.4266 17.6826 48.8333 16.8488 48.2029C16.015 47.5928 16.0964 47.0031 17.2555 44.9898C17.8452 43.9933 18.4553 43.0172 18.618 42.8139C19.0044 42.3665 19.8382 42.3665 20.3262 42.8139ZM23.946 44.9085C24.1697 45.1322 24.3527 45.4575 24.3527 45.6202C24.3527 45.9253 22.8479 48.7113 22.0751 49.8298C21.7904 50.2365 21.5057 50.3992 21.0787 50.3992C20.4482 50.3992 19.6755 49.7891 19.6755 49.2807C19.6755 48.9757 21.1803 46.1896 21.9531 45.0508C22.4412 44.3797 23.3563 44.3187 23.946 44.9085ZM27.0371 47.4911C27.5862 47.9792 27.4845 48.7316 26.7321 49.9925C26.1016 51.0499 26 51.1109 25.2679 51.1109C24.6171 51.1109 24.4138 51.0092 24.1494 50.5619C23.8647 50.0331 23.885 49.9314 24.3527 49.057C25.1052 47.6131 25.5526 47.1454 26.122 47.1454C26.427 47.1454 26.8337 47.2878 27.0371 47.4911Z" fill="white"/>
<path d="M24.4952 11.4762L21.8922 13.2047L21.9532 15.279L22.0142 17.3533H27.4032H32.7922L32.8532 15.279L32.9142 13.2047L30.3112 11.4558C28.8877 10.5001 27.5659 9.72729 27.4032 9.74763C27.2405 9.74763 25.9187 10.5407 24.4952 11.4762ZM31.4704 15.0553V16.0314L27.4642 15.9908L23.4377 15.9298V15.0146V14.0995L25.4509 12.737L27.4439 11.3745L29.4571 12.7167L31.4704 14.0588V15.0553Z" fill="white"/>
<path d="M20.4076 19.6105C20.3466 19.7935 20.2856 20.6476 20.2856 21.522C20.2856 22.3965 20.3466 23.2506 20.4076 23.4336C20.5703 23.8607 21.6278 23.8607 21.7904 23.4336C22.0141 22.8439 21.9328 19.7935 21.6684 19.5291C21.3227 19.1834 20.55 19.2241 20.4076 19.6105Z" fill="white"/>
<path d="M33.138 19.5291C32.8736 19.7935 32.7922 22.8439 33.0159 23.4336C33.1786 23.8607 34.2361 23.8607 34.3988 23.4336C34.5615 23.0269 34.5615 20.0172 34.3988 19.6105C34.2564 19.2241 33.4837 19.1834 33.138 19.5291Z" fill="white"/>
</svg>
