<svg width="24" height="24" viewBox="0 0 24 24" fill="none" xmlns="http://www.w3.org/2000/svg">
<path fill-rule="evenodd" clip-rule="evenodd" d="M10.5901 0.0650505C10.3193 0.097919 9.91838 0.160796 9.69918 0.204823C9.47998 0.248851 9.14239 0.326263 8.94898 0.376855C8.75556 0.427447 8.37591 0.544058 8.10527 0.635958C7.83464 0.727905 7.39614 0.898155 7.1308 1.01434C6.86551 1.13053 6.39068 1.37294 6.07559 1.55299C5.7605 1.73304 5.29261 2.02998 5.03576 2.21285C4.77895 2.39571 4.35162 2.73283 4.08618 2.96202C3.8207 3.19116 3.43589 3.56158 3.23099 3.78514C3.02609 4.0087 2.73966 4.33931 2.59444 4.51983C2.44923 4.70034 2.17409 5.08323 1.98298 5.37065C1.79186 5.65808 1.50983 6.13282 1.35623 6.42563C1.20262 6.71845 0.979482 7.20064 0.86034 7.49721C0.741245 7.79378 0.572167 8.27907 0.484674 8.57563C0.397134 8.8722 0.27321 9.37859 0.209254 9.70094C0.145299 10.0233 0.0677935 10.5385 0.037035 10.8459C0.00205663 11.195 -0.00900892 11.7581 0.00754252 12.3463C0.0220778 12.8641 0.0664338 13.4892 0.106054 13.7351C0.145627 13.9812 0.210942 14.3386 0.251078 14.5296C0.291261 14.7205 0.388835 15.0994 0.467935 15.3717C0.547035 15.6439 0.706641 16.1093 0.822595 16.4059C0.938549 16.7025 1.16685 17.2005 1.32992 17.5127C1.49295 17.8249 1.72622 18.2363 1.84822 18.427C1.97022 18.6177 2.21123 18.9637 2.38378 19.1957C2.55632 19.4278 2.87952 19.8216 3.10205 20.0708C3.32458 20.3199 3.70259 20.6979 3.94205 20.9106C4.18151 21.1234 4.5884 21.4543 4.84628 21.646C5.10417 21.8377 5.56212 22.1412 5.86394 22.3203C6.16576 22.4995 6.62995 22.7478 6.89547 22.8721C7.161 22.9963 7.61033 23.1832 7.894 23.2874C8.17767 23.3915 8.70516 23.5507 9.0662 23.6411C9.42723 23.7315 9.96527 23.8437 10.2618 23.8903C10.673 23.9549 11.0793 23.9755 11.9732 23.9767C12.7232 23.9777 13.2975 23.9556 13.5674 23.9153C13.7995 23.8806 14.1899 23.8104 14.4349 23.7593C14.6799 23.7081 15.1018 23.6027 15.3726 23.5249C15.6434 23.4471 16.1076 23.2881 16.4042 23.1716C16.7007 23.0551 17.167 22.8459 17.4404 22.7067C17.7138 22.5675 18.1555 22.3153 18.422 22.1464C18.6885 21.9774 19.0873 21.6982 19.3082 21.5259C19.529 21.3536 19.8862 21.0559 20.1018 20.8642C20.3174 20.6726 20.6733 20.3142 20.8928 20.0677C21.1122 19.8213 21.4497 19.4082 21.6427 19.1498C21.8358 18.8914 22.1405 18.4325 22.3197 18.13C22.499 17.8276 22.7421 17.3739 22.8599 17.1219C22.9777 16.87 23.1449 16.4784 23.2314 16.2518C23.3179 16.0252 23.4508 15.6243 23.5267 15.3609C23.6025 15.0976 23.7087 14.6752 23.7627 14.4223C23.8167 14.1695 23.8921 13.6949 23.9304 13.3676C23.9687 13.0404 24 12.4243 24 11.9985C24 11.5726 23.9689 10.9581 23.9308 10.633C23.8928 10.3078 23.8083 9.78876 23.743 9.47958C23.6777 9.17041 23.5501 8.683 23.4593 8.39647C23.3686 8.10994 23.1992 7.64856 23.083 7.37108C22.9668 7.09364 22.7545 6.64455 22.6114 6.37312C22.4682 6.10168 22.2131 5.67172 22.0445 5.41768C21.8759 5.16364 21.5681 4.74165 21.3604 4.47992C21.1526 4.2182 20.7595 3.78097 20.4869 3.50827C20.2142 3.23561 19.7695 2.83627 19.4988 2.62086C19.228 2.40546 18.7954 2.09192 18.5376 1.92411C18.2797 1.7563 17.8155 1.48721 17.506 1.3262C17.1966 1.16514 16.7261 0.947247 16.4605 0.841984C16.1949 0.736673 15.7413 0.579177 15.4524 0.491918C15.1635 0.404707 14.7056 0.288237 14.4349 0.233144C14.1641 0.178004 13.6789 0.101904 13.3567 0.064019C13.023 0.0247738 12.4076 -0.00265562 11.9266 0.000204546C11.4623 0.00301782 10.8608 0.0321821 10.5901 0.0650505ZM15.747 5.78852C15.9142 5.82795 16.1991 5.93171 16.38 6.01911C16.5609 6.10656 16.8515 6.29608 17.0257 6.44031L17.3424 6.70255L17.6352 6.62678C17.7963 6.5851 18.0546 6.50773 18.2093 6.45484C18.3641 6.40191 18.675 6.26659 18.9003 6.1541L19.3099 5.94958L19.2169 6.18571C19.1657 6.31559 19.0879 6.47918 19.0439 6.54923C19.0001 6.61933 18.8643 6.80449 18.7422 6.96072C18.6202 7.11695 18.3931 7.33746 18.2375 7.45074C18.0819 7.56402 17.9626 7.66465 17.9723 7.67435C17.982 7.68406 18.1682 7.6586 18.386 7.61781C18.6038 7.57701 18.959 7.48314 19.1755 7.40925C19.392 7.33535 19.6101 7.2578 19.6601 7.23693C19.7312 7.2073 19.7167 7.24701 19.5941 7.41769C19.5077 7.53795 19.2933 7.79237 19.1177 7.98297C18.9421 8.17357 18.6637 8.43872 18.4993 8.57221L18.2001 8.8149L18.1692 9.45722C18.1522 9.81047 18.1068 10.3089 18.0683 10.5649C18.0297 10.8209 17.9425 11.2429 17.8746 11.5027C17.8066 11.7625 17.6618 12.2072 17.5527 12.4911C17.4436 12.775 17.2589 13.197 17.1422 13.4289C17.0256 13.6608 16.7836 14.0726 16.6046 14.344C16.4255 14.6155 16.0967 15.0497 15.8739 15.309C15.6512 15.5683 15.3154 15.9142 15.1277 16.0776C14.9401 16.241 14.6388 16.4838 14.4583 16.6171C14.2778 16.7504 13.9469 16.9693 13.7231 17.1037C13.4992 17.238 13.13 17.4285 12.9025 17.5271C12.6751 17.6258 12.2886 17.7733 12.0436 17.8549C11.7986 17.9366 11.3449 18.0544 11.0355 18.1168C10.726 18.1792 10.1649 18.2537 9.78855 18.2825C9.29229 18.3204 8.92994 18.3209 8.46974 18.2842C8.12075 18.2563 7.71132 18.2114 7.55983 18.1843C7.40838 18.1573 7.07346 18.0806 6.81558 18.014C6.55769 17.9474 6.16735 17.8241 5.94815 17.7402C5.72895 17.6562 5.41245 17.5248 5.24483 17.4482C5.07721 17.3716 4.79686 17.2253 4.62188 17.1231L4.3037 16.9372L4.99698 16.9337C5.48898 16.9312 5.82694 16.903 6.16097 16.8366C6.41989 16.7852 6.79827 16.6871 7.00186 16.6188C7.20545 16.5505 7.52293 16.4249 7.70734 16.3397C7.89175 16.2544 8.21302 16.0754 8.42121 15.9419C8.62943 15.8083 8.82332 15.6707 8.85206 15.636C8.89445 15.585 8.85295 15.5668 8.63361 15.5402C8.48469 15.5221 8.20463 15.4547 8.01122 15.3905C7.8178 15.3263 7.54651 15.2091 7.40833 15.1301C7.27015 15.0512 7.02043 14.8588 6.85337 14.7024C6.68626 14.5462 6.48689 14.3271 6.41023 14.2157C6.33361 14.1044 6.20885 13.8881 6.13298 13.7352C6.05712 13.5823 5.99508 13.4402 5.99513 13.4194C5.99518 13.3987 6.26417 13.3816 6.59295 13.3816C6.92168 13.3816 7.23288 13.3639 7.28445 13.3422C7.36112 13.3099 7.31385 13.2797 7.02502 13.1767C6.83077 13.1075 6.57527 12.9943 6.45726 12.9251C6.33924 12.8559 6.1364 12.7153 6.00652 12.6126C5.8766 12.51 5.67606 12.3034 5.5609 12.1536C5.44574 12.0038 5.28389 11.7471 5.20122 11.5832C5.11851 11.4192 5.01011 11.1258 4.96031 10.931C4.91047 10.7362 4.86973 10.4852 4.86973 10.3733C4.86973 10.2614 4.87774 10.1698 4.8875 10.1698C4.8973 10.1698 5.02188 10.2232 5.16442 10.2884C5.30691 10.3537 5.58561 10.4381 5.78376 10.476C5.98186 10.5139 6.17631 10.5449 6.21588 10.5449C6.25541 10.5449 6.13655 10.4049 5.95176 10.2338C5.76693 10.0627 5.54965 9.82669 5.46891 9.70933C5.38817 9.59197 5.26359 9.37512 5.19203 9.22747C5.12048 9.07977 5.02549 8.82522 4.9809 8.66177C4.92843 8.46938 4.89959 8.1911 4.89917 7.87231C4.89875 7.56356 4.92693 7.27383 4.97476 7.09533C5.01672 6.93877 5.1051 6.68844 5.17117 6.53905L5.29125 6.26748L5.51092 6.51894C5.63175 6.65726 5.86924 6.9037 6.03864 7.06654C6.2081 7.22939 6.48384 7.47447 6.65147 7.61119C6.81909 7.74792 7.1324 7.97758 7.34771 8.12157C7.56302 8.26556 7.92565 8.4797 8.15352 8.59739C8.38144 8.71508 8.76438 8.88748 9.00459 8.98046C9.24479 9.07344 9.6101 9.20032 9.8164 9.2624C10.0227 9.32453 10.4131 9.41497 10.6838 9.46345C10.9546 9.51194 11.335 9.56614 11.5292 9.58391L11.8822 9.61626L11.8368 9.23295C11.8043 8.95856 11.8078 8.73627 11.8491 8.45072C11.8808 8.23129 11.9568 7.91887 12.0179 7.75641C12.0791 7.59399 12.2169 7.32208 12.3242 7.15216C12.4315 6.98219 12.664 6.70921 12.841 6.54543C13.0178 6.38165 13.2958 6.17624 13.4588 6.08898C13.6217 6.00167 13.9132 5.88305 14.1066 5.82537C14.3706 5.74665 14.5812 5.72002 14.9506 5.71866C15.2351 5.71762 15.5713 5.74712 15.747 5.78852Z" fill="white"/>
</svg>
