<svg width="24" height="24" viewBox="0 0 24 24" fill="none" xmlns="http://www.w3.org/2000/svg">
<path fill-rule="evenodd" clip-rule="evenodd" d="M10.5929 0.0650678C10.322 0.097945 9.92101 0.160838 9.70176 0.204878C9.4825 0.248917 9.14481 0.32635 8.95135 0.376955C8.75789 0.427561 8.37813 0.544202 8.10742 0.636127C7.83672 0.728098 7.3981 0.898393 7.1327 1.01461C6.86733 1.13083 6.39237 1.37331 6.0772 1.5534C5.76203 1.7335 5.29401 2.03052 5.03709 2.21343C4.78022 2.39634 4.35277 2.73356 4.08727 2.96281C3.82172 3.19201 3.43681 3.56252 3.23185 3.78614C3.0269 4.00976 2.74038 4.34046 2.59513 4.52102C2.44988 4.70159 2.17467 5.08458 1.9835 5.37208C1.79234 5.65958 1.51023 6.13444 1.35659 6.42734C1.20294 6.72023 0.979742 7.20255 0.860568 7.4992C0.741441 7.79584 0.572319 8.28126 0.484803 8.57791C0.39724 8.87455 0.273282 9.38107 0.20931 9.70352C0.145338 10.026 0.0678115 10.5413 0.0370449 10.8488C0.00205718 11.1979 -0.00901131 11.7613 0.00754452 12.3496C0.0220836 12.8676 0.0664514 13.4927 0.106082 13.7388C0.145666 13.9849 0.210998 14.3424 0.251145 14.5334C0.291339 14.7244 0.388282 15.1006 0.466605 15.3695C0.544929 15.6383 0.695667 16.0828 0.801615 16.3571C0.907562 16.6314 1.13456 17.1302 1.30607 17.4655C1.47759 17.8009 1.71978 18.2335 1.84426 18.427C1.96878 18.6204 2.21181 18.9687 2.38441 19.2008C2.557 19.433 2.88029 19.8269 3.10287 20.0761C3.32546 20.3253 3.70357 20.7034 3.94309 20.9162C4.18261 21.129 4.58962 21.46 4.84757 21.6518C5.10552 21.8435 5.5636 22.147 5.86549 22.3262C6.16739 22.5055 6.6317 22.7538 6.8973 22.8782C7.1629 23.0024 7.61234 23.1894 7.89609 23.2936C8.17984 23.3977 8.70747 23.5569 9.0686 23.6474C9.42973 23.7378 9.96792 23.85 10.2646 23.8966C10.6759 23.9613 11.0822 23.9818 11.9764 23.983C12.7266 23.9841 13.301 23.9619 13.571 23.9216C13.8032 23.8869 14.1936 23.8167 14.4387 23.7656C14.6837 23.7144 15.1059 23.609 15.3767 23.5311C15.6475 23.4533 16.1119 23.2943 16.4085 23.1778C16.7052 23.0612 17.1716 22.8519 17.4451 22.7127C17.7185 22.5735 18.1603 22.3213 18.4269 22.1522C18.6935 21.9832 19.0924 21.7039 19.3133 21.5316C19.5342 21.3593 19.8915 21.0615 20.1071 20.8697C20.3228 20.6781 20.6788 20.3196 20.8983 20.073C21.1178 19.8266 21.4554 19.4134 21.6485 19.1549C21.8416 18.8964 22.146 18.4379 22.325 18.136C22.5039 17.8341 22.7521 17.3698 22.8764 17.1042C23.0007 16.8386 23.1877 16.3892 23.2919 16.1054C23.3961 15.8217 23.5575 15.2835 23.6504 14.9095C23.7434 14.5354 23.8526 14.0183 23.8932 13.7604C23.9337 13.5024 23.9786 12.8676 23.9928 12.3496C24.009 11.7596 23.9976 11.1989 23.9621 10.8488C23.931 10.5413 23.853 10.0171 23.7886 9.68377C23.7242 9.3505 23.5975 8.83342 23.507 8.53471C23.4165 8.23605 23.2477 7.75949 23.1319 7.47575C23.0162 7.192 22.7946 6.71713 22.6396 6.42049C22.4845 6.12384 22.2196 5.67323 22.0507 5.41912C21.8819 5.16501 21.5738 4.74291 21.366 4.48111C21.1582 4.21931 20.765 3.78197 20.4923 3.5092C20.2195 3.23647 19.7748 2.83702 19.5039 2.62156C19.2331 2.4061 18.8004 2.09248 18.5425 1.92462C18.2845 1.75676 17.8202 1.4876 17.5107 1.32655C17.2011 1.16544 16.7305 0.947498 16.4649 0.842207C16.1992 0.736869 15.7455 0.57933 15.4565 0.492049C15.1676 0.404814 14.7095 0.288314 14.4387 0.233206C14.1678 0.178051 13.6826 0.101931 13.3603 0.064036C13.0265 0.0247804 12.4109 -0.00265632 11.9298 0.0002046C11.4654 0.00301862 10.8637 0.0321907 10.5929 0.0650678ZM15.3266 5.78354C15.3647 5.8294 15.3847 6.17614 15.391 6.90136C15.398 7.70265 15.3858 7.97017 15.3396 8.02626C15.2897 8.08677 15.1312 8.10295 14.4484 8.11725C13.7713 8.13137 13.5899 8.14971 13.4663 8.21635C13.3829 8.26128 13.2826 8.36001 13.2435 8.43566C13.1879 8.54329 13.1724 8.75233 13.1724 9.39632V10.2194H14.1573C15.0797 10.2194 15.1482 10.2254 15.236 10.3132C15.3244 10.4016 15.3298 10.4695 15.3298 11.4987C15.3298 12.4109 15.3178 12.6076 15.2568 12.6947C15.1851 12.797 15.1649 12.7989 14.1546 12.7989H13.1255V15.4863C13.1255 17.514 13.1116 18.1876 13.0692 18.23C13.0284 18.2708 12.6874 18.2863 11.8297 18.2863C10.8166 18.2863 10.6359 18.2757 10.5727 18.2126C10.5075 18.1473 10.4991 17.8336 10.4991 15.4689V12.7989H9.61368C8.84751 12.7989 8.71966 12.7885 8.66394 12.7214C8.61339 12.6605 8.5996 12.4047 8.5996 11.5272C8.5996 10.5183 8.60766 10.4024 8.68322 10.3267C8.75629 10.2535 8.87579 10.241 9.6285 10.2283L10.4901 10.2137L10.5118 9.17303C10.5282 8.38529 10.553 8.06397 10.6136 7.85095C10.6577 7.69618 10.7692 7.41126 10.8614 7.2178C10.9838 6.96088 11.1188 6.77651 11.362 6.53385C11.5815 6.31492 11.799 6.15105 11.9999 6.05326C12.1675 5.97165 12.463 5.86378 12.6565 5.8135C12.9562 5.73565 13.1756 5.72177 14.1398 5.71956C15.0619 5.71745 15.2816 5.72932 15.3266 5.78354Z" fill="#A91E22"/>
</svg>
