<svg width="45" height="45" viewBox="0 0 45 45" fill="none" xmlns="http://www.w3.org/2000/svg">
<rect x="0.5" y="0.5" width="44" height="44" rx="22" stroke="#BDBDBD"/>
<path d="M31.5 23.3374V29.5426H27.8677V23.7158C27.8677 22.278 27.338 21.2943 26.0516 21.2943C25.0678 21.2943 24.4624 21.9753 24.2354 22.5807C24.1598 22.8077 24.0841 23.1104 24.0841 23.4888V29.5426H20.4518C20.4518 29.5426 20.5275 19.7052 20.4518 18.7214H24.0841V20.2349C24.5381 19.4781 25.4462 18.4187 27.338 18.4187C29.6839 18.4187 31.5 20.0078 31.5 23.3374ZM16.6682 13.5C15.4574 13.5 14.625 14.3324 14.625 15.3918C14.625 16.4512 15.3817 17.2836 16.5925 17.2836C17.8789 17.2836 18.6357 16.4512 18.6357 15.3918C18.7113 14.2567 17.9546 13.5 16.6682 13.5ZM14.852 29.5426H18.4843V18.7214H14.852V29.5426Z" fill="black"/>
</svg>
