<svg width="25" height="24" viewBox="0 0 25 24" fill="none" xmlns="http://www.w3.org/2000/svg">
<path d="M11.078 0.0304089C10.1943 0.162025 9.19778 0.406456 8.49269 0.650888C4.45957 2.07987 1.55459 5.3985 0.633275 9.65725C0.388843 10.776 0.388843 13.2391 0.633275 14.3579C1.67681 19.1807 5.26807 22.7719 10.0909 23.8155C11.2002 24.0599 13.6728 24.0599 14.7727 23.8249C17.9879 23.1198 20.6767 21.3148 22.4723 18.6354C23.2714 17.4509 23.9201 15.8809 24.2491 14.3579C24.4936 13.2391 24.4936 10.776 24.2491 9.65725C23.2056 4.83443 19.6143 1.24316 14.7915 0.199631C14.1052 0.0492115 11.6703 -0.054203 11.078 0.0304089ZM16.794 5.3985C17.9127 5.82156 18.7118 6.64886 19.0785 7.74881C19.2383 8.24707 19.2571 8.61372 19.2571 12.0076C19.2571 15.4014 19.2383 15.768 19.0785 16.2663C18.7118 17.3945 17.8281 18.2782 16.7 18.6448C16.2017 18.8046 15.835 18.8234 12.4412 18.8234C9.04736 18.8234 8.68072 18.8046 8.18245 18.6448C7.08251 18.2782 6.2552 17.4791 5.83215 16.3603C5.63472 15.8433 5.62532 15.6458 5.59712 12.3366C5.57831 9.95809 5.59712 8.67953 5.67233 8.29408C5.98257 6.72408 6.9885 5.66174 8.5397 5.27629C8.87814 5.19168 9.99689 5.16347 12.6292 5.17287C16.0983 5.19168 16.2675 5.20108 16.794 5.3985Z" fill="black"/>
<path d="M8.89688 6.46082C8.03197 6.63944 7.43029 7.1189 7.06364 7.91801C6.84741 8.37866 6.84741 8.42567 6.84741 12.0075C6.84741 15.5894 6.84741 15.6364 7.06364 16.0971C7.34568 16.7081 7.74993 17.1124 8.34221 17.385C8.81227 17.6013 8.85927 17.6013 12.4411 17.6013C16.023 17.6013 16.07 17.6013 16.5307 17.385C17.1417 17.103 17.546 16.6987 17.8186 16.1065C18.0349 15.6364 18.0349 15.5894 18.0349 12.0075C18.0349 8.42567 18.0349 8.37866 17.8186 7.9086C17.546 7.31633 17.1417 6.91208 16.5307 6.63004C16.07 6.41381 15.9948 6.41381 12.6762 6.39501C10.8147 6.38561 9.11311 6.41381 8.89688 6.46082ZM16.6811 7.76759C17.1323 8.21884 17.0195 8.81112 16.4367 9.05555C16.0982 9.19657 15.8914 9.15897 15.5999 8.91453C15.3179 8.6701 15.2427 8.36926 15.3931 8.02142C15.6375 7.42914 16.2298 7.31633 16.6811 7.76759ZM13.9077 8.80172C14.7256 9.18717 15.2051 9.65723 15.6093 10.4751C15.929 11.1332 15.9572 11.246 15.9572 12.0075C15.9572 12.769 15.929 12.8818 15.6093 13.5399C15.1957 14.3766 14.7256 14.8279 13.8607 15.2322C13.3154 15.486 13.1368 15.5236 12.4317 15.5236C11.6796 15.5236 11.5668 15.4954 10.9087 15.1757C10.072 14.7621 9.62077 14.292 9.21652 13.4271C8.96269 12.8818 8.92508 12.7032 8.92508 12.0075C8.92508 11.3118 8.96269 11.1332 9.21652 10.588C9.37634 10.2401 9.65838 9.79825 9.8464 9.59142C10.2318 9.15897 11.125 8.6513 11.7078 8.52908C12.3659 8.38807 13.2684 8.50088 13.9077 8.80172Z" fill="black"/>
<path d="M11.426 9.94871C10.9559 10.1837 10.42 10.776 10.2696 11.2273C10.2132 11.4059 10.185 11.8478 10.2038 12.1956C10.2414 12.9571 10.5328 13.4648 11.2097 13.9348C11.5858 14.1981 11.6704 14.2169 12.4413 14.2169C13.2122 14.2169 13.2968 14.1981 13.6728 13.9348C13.8985 13.775 14.2087 13.4648 14.3685 13.2391C14.6318 12.8631 14.6506 12.7785 14.6506 12.0076C14.6506 11.2367 14.6318 11.1521 14.3685 10.776C14.2087 10.5504 13.8985 10.2401 13.6728 10.0803C13.325 9.83589 13.1746 9.79829 12.5541 9.77008C11.9618 9.75128 11.755 9.77948 11.426 9.94871Z" fill="black"/>
</svg>
