<svg width="25" height="24" viewBox="0 0 25 24" fill="none" xmlns="http://www.w3.org/2000/svg">
<path d="M11.0783 0.0304089C10.1946 0.162025 9.19803 0.406456 8.49294 0.650888C4.45981 2.07987 1.55484 5.3985 0.633519 9.65725C0.389087 10.776 0.389087 13.2391 0.633519 14.3579C1.67705 19.1807 5.26832 22.7719 10.0911 23.8155C11.2005 24.0599 13.673 24.0599 14.7729 23.8249C17.9882 23.1198 20.6769 21.3148 22.4725 18.6354C23.2716 17.4509 23.9203 15.8809 24.2494 14.3579C24.4938 13.2391 24.4938 10.776 24.2494 9.65725C23.2058 4.83443 19.6146 1.24316 14.7918 0.199631C14.1055 0.0492115 11.6705 -0.054203 11.0783 0.0304089ZM16.7942 5.3985C17.913 5.82156 18.7121 6.64886 19.0787 7.74881C19.2385 8.24707 19.2573 8.61372 19.2573 12.0076C19.2573 15.4014 19.2385 15.768 19.0787 16.2663C18.7121 17.3945 17.8283 18.2782 16.7002 18.6448C16.2019 18.8046 15.8353 18.8234 12.4414 18.8234C9.04761 18.8234 8.68096 18.8046 8.1827 18.6448C7.08275 18.2782 6.25545 17.4791 5.83239 16.3603C5.63497 15.8433 5.62557 15.6458 5.59736 12.3366C5.57856 9.95809 5.59736 8.67953 5.67257 8.29408C5.98281 6.72408 6.98874 5.66174 8.53994 5.27629C8.87839 5.19168 9.99713 5.16347 12.6295 5.17287C16.0985 5.19168 16.2677 5.20108 16.7942 5.3985Z" fill="#A91E22"/>
<path d="M8.89712 6.46063C8.03221 6.63926 7.43053 7.11872 7.06388 7.91782C6.84766 8.37848 6.84766 8.42549 6.84766 12.0074C6.84766 15.5892 6.84766 15.6362 7.06388 16.0969C7.34592 16.708 7.75017 17.1122 8.34245 17.3848C8.81251 17.6011 8.85952 17.6011 12.4414 17.6011C16.0232 17.6011 16.0702 17.6011 16.5309 17.3848C17.142 17.1028 17.5462 16.6986 17.8189 16.1063C18.0351 15.6362 18.0351 15.5892 18.0351 12.0074C18.0351 8.42549 18.0351 8.37848 17.8189 7.90842C17.5462 7.31614 17.142 6.91189 16.5309 6.62986C16.0702 6.41363 15.995 6.41363 12.6764 6.39483C10.815 6.38542 9.11335 6.41363 8.89712 6.46063ZM16.6813 7.7674C17.1326 8.21866 17.0198 8.81094 16.4369 9.05537C16.0985 9.19639 15.8916 9.15878 15.6002 8.91435C15.3182 8.66992 15.2429 8.36908 15.3934 8.02124C15.6378 7.42896 16.2301 7.31614 16.6813 7.7674ZM13.908 8.80154C14.7259 9.18699 15.2053 9.65705 15.6096 10.475C15.9292 11.133 15.9574 11.2459 15.9574 12.0074C15.9574 12.7688 15.9292 12.8817 15.6096 13.5397C15.1959 14.3765 14.7259 14.8277 13.861 15.232C13.3157 15.4858 13.1371 15.5234 12.432 15.5234C11.6799 15.5234 11.5671 15.4952 10.909 15.1756C10.0723 14.7619 9.62101 14.2918 9.21676 13.4269C8.96293 12.8817 8.92532 12.703 8.92532 12.0074C8.92532 11.3117 8.96293 11.133 9.21676 10.5878C9.37658 10.2399 9.65862 9.79807 9.84664 9.59124C10.2321 9.15878 11.1252 8.65112 11.7081 8.5289C12.3662 8.38788 13.2687 8.5007 13.908 8.80154Z" fill="#A91E22"/>
<path d="M11.4262 9.94865C10.9561 10.1837 10.4203 10.776 10.2699 11.2272C10.2134 11.4058 10.1852 11.8477 10.204 12.1955C10.2416 12.957 10.5331 13.4647 11.21 13.9348C11.586 14.198 11.6706 14.2168 12.4415 14.2168C13.2124 14.2168 13.297 14.198 13.6731 13.9348C13.8987 13.7749 14.209 13.4647 14.3688 13.2391C14.632 12.863 14.6508 12.7784 14.6508 12.0075C14.6508 11.2366 14.632 11.152 14.3688 10.776C14.209 10.5503 13.8987 10.2401 13.6731 10.0803C13.3252 9.83583 13.1748 9.79823 12.5543 9.77002C11.9621 9.75122 11.7552 9.77942 11.4262 9.94865Z" fill="#A91E22"/>
</svg>
