<svg width="25" height="24" viewBox="0 0 25 24" fill="none" xmlns="http://www.w3.org/2000/svg">
<path d="M11.078 0.0304089C10.1943 0.162025 9.19778 0.406456 8.49269 0.650888C4.45957 2.07987 1.55459 5.3985 0.633275 9.65725C0.388843 10.776 0.388843 13.2391 0.633275 14.3579C1.67681 19.1807 5.26807 22.7719 10.0909 23.8155C11.2002 24.0599 13.6728 24.0599 14.7727 23.8249C17.9879 23.1198 20.6767 21.3148 22.4723 18.6354C23.2714 17.4509 23.9201 15.8809 24.2491 14.3579C24.4936 13.2391 24.4936 10.776 24.2491 9.65725C23.2056 4.83443 19.6143 1.24316 14.7915 0.199631C14.1052 0.0492115 11.6703 -0.054203 11.078 0.0304089ZM16.794 5.3985C17.9127 5.82156 18.7118 6.64886 19.0785 7.74881C19.2383 8.24707 19.2571 8.61372 19.2571 12.0076C19.2571 15.4014 19.2383 15.768 19.0785 16.2663C18.7118 17.3945 17.8281 18.2782 16.7 18.6448C16.2017 18.8046 15.835 18.8234 12.4412 18.8234C9.04736 18.8234 8.68072 18.8046 8.18245 18.6448C7.08251 18.2782 6.2552 17.4791 5.83215 16.3603C5.63472 15.8433 5.62532 15.6458 5.59712 12.3366C5.57831 9.95809 5.59712 8.67953 5.67233 8.29408C5.98257 6.72408 6.9885 5.66174 8.5397 5.27629C8.87814 5.19168 9.99689 5.16347 12.6292 5.17287C16.0983 5.19168 16.2675 5.20108 16.794 5.3985Z" fill="white"/>
<path d="M8.897 6.46088C8.03209 6.6395 7.43041 7.11896 7.06376 7.91807C6.84753 8.37873 6.84753 8.42573 6.84753 12.0076C6.84753 15.5895 6.84753 15.6365 7.06376 16.0971C7.3458 16.7082 7.75005 17.1125 8.34233 17.3851C8.81239 17.6013 8.85939 17.6013 12.4413 17.6013C16.0231 17.6013 16.0701 17.6013 16.5308 17.3851C17.1419 17.1031 17.5461 16.6988 17.8188 16.1065C18.035 15.6365 18.035 15.5895 18.035 12.0076C18.035 8.42573 18.035 8.37873 17.8188 7.90867C17.5461 7.31639 17.1419 6.91214 16.5308 6.6301C16.0701 6.41387 15.9949 6.41387 12.6763 6.39507C10.8148 6.38567 9.11323 6.41387 8.897 6.46088ZM16.6812 7.76765C17.1325 8.21891 17.0196 8.81118 16.4368 9.05561C16.0983 9.19663 15.8915 9.15903 15.6001 8.9146C15.318 8.67016 15.2428 8.36932 15.3932 8.02148C15.6377 7.4292 16.2299 7.31639 16.6812 7.76765ZM13.9078 8.80178C14.7258 9.18723 15.2052 9.65729 15.6095 10.4752C15.9291 11.1333 15.9573 11.2461 15.9573 12.0076C15.9573 12.7691 15.9291 12.8819 15.6095 13.54C15.1958 14.3767 14.7258 14.828 13.8608 15.2322C13.3156 15.486 13.1369 15.5236 12.4319 15.5236C11.6798 15.5236 11.5669 15.4954 10.9089 15.1758C10.0722 14.7622 9.62089 14.2921 9.21664 13.4272C8.96281 12.8819 8.9252 12.7033 8.9252 12.0076C8.9252 11.3119 8.96281 11.1333 9.21664 10.588C9.37646 10.2402 9.6585 9.79831 9.84652 9.59148C10.232 9.15903 11.1251 8.65136 11.708 8.52915C12.366 8.38813 13.2686 8.50094 13.9078 8.80178Z" fill="white"/>
<path d="M11.4258 9.94865C10.9558 10.1837 10.4199 10.776 10.2695 11.2272C10.2131 11.4058 10.1849 11.8477 10.2037 12.1955C10.2413 12.957 10.5327 13.4647 11.2096 13.9348C11.5857 14.198 11.6703 14.2168 12.4412 14.2168C13.2121 14.2168 13.2967 14.198 13.6727 13.9348C13.8984 13.7749 14.2086 13.4647 14.3684 13.2391C14.6316 12.863 14.6505 12.7784 14.6505 12.0075C14.6505 11.2366 14.6316 11.152 14.3684 10.776C14.2086 10.5503 13.8984 10.2401 13.6727 10.0803C13.3249 9.83583 13.1745 9.79823 12.554 9.77002C11.9617 9.75122 11.7549 9.77942 11.4258 9.94865Z" fill="white"/>
</svg>
