<svg width="24" height="24" viewBox="0 0 24 24" fill="none" xmlns="http://www.w3.org/2000/svg">
<path d="M10.0305 0.124334C8.86624 0.33803 7.80873 0.697424 6.73182 1.22195C3.01599 3.05778 0.561413 6.55459 0.0763178 10.6925C-0.486392 15.5492 2.10401 20.3864 6.47957 22.6497C8.34233 23.6113 9.97225 24.0095 12.0679 23.9998C14.2605 23.9901 16.1427 23.5044 17.9181 22.4845C21.0227 20.6973 23.0504 17.8998 23.8169 14.3544C24.0594 13.218 24.0594 10.8382 23.8266 9.69202C23.2736 7.07912 22.0899 4.9616 20.1786 3.17434C18.7137 1.79504 16.8897 0.804272 14.8911 0.308889C13.6299 -0.011652 11.2432 -0.0990734 10.0305 0.124334ZM13.5328 4.88389C14.5515 5.07816 15.5897 5.58326 16.2397 6.20491C16.8315 6.76829 17.1517 7.25396 17.4136 8.04074C17.6562 8.76924 17.6659 10.6439 17.4233 11.5278C16.8412 13.6648 15.3956 15.0829 13.6784 15.2092C12.7567 15.2675 12.4365 15.1898 11.7283 14.7333C11.1074 14.335 10.9618 14.335 10.9521 14.743C10.9424 15.1315 10.4185 16.9091 10.1275 17.5113C9.81702 18.1524 9.08938 19.114 8.91475 19.114C8.75951 19.114 8.7013 17.6764 8.80802 16.6759C8.86624 16.1223 9.13789 14.7527 9.40954 13.6454L9.90434 11.625L9.73941 11.081C9.51626 10.3817 9.59388 9.64345 9.95285 8.92466C10.4088 8.0116 11.185 7.70077 11.9029 8.13787C12.5141 8.5167 12.5433 9.00237 12.0582 10.6828C11.8641 11.3336 11.6798 12.1398 11.6604 12.47C11.6119 13.0237 11.6216 13.082 11.8932 13.3831C12.1552 13.6842 12.2522 13.7134 12.8149 13.7522C13.5523 13.8008 14.0373 13.5968 14.5224 13.0431C15.2986 12.1689 15.6479 10.9936 15.5897 9.44918C15.5314 7.80762 15.0949 7.04998 13.8627 6.41861C13.3679 6.16606 13.2418 6.14663 12.2522 6.14663C11.2141 6.14663 11.1656 6.15635 10.4573 6.50603C9.00206 7.22482 8.1483 8.43899 8.06098 9.88628C8.02217 10.6245 8.03187 10.6925 8.37144 11.3724C8.74011 12.1301 8.78862 12.4409 8.60428 12.8489C8.46846 13.15 8.23561 13.1208 7.57588 12.742C6.29523 11.9941 6.01388 9.59488 6.99377 7.7202C7.41095 6.91399 8.40055 5.95236 9.25431 5.49583C10.632 4.77704 11.9805 4.58278 13.5328 4.88389Z" fill="white"/>
</svg>
