<svg width="55" height="55" viewBox="0 0 55 55" fill="none" xmlns="http://www.w3.org/2000/svg">
<path d="M30.9723 2.377C29.7935 2.59679 27.7954 3.33608 26.8163 3.89554C24.4986 5.21426 22.3207 7.75182 21.3616 10.2294L20.922 11.3683L19.923 11.1086C17.9849 10.6091 15.9468 11.5282 14.8679 13.3664C14.2684 14.3854 14.3684 14.8849 15.1476 15.0048C15.4473 15.0448 15.7071 14.8649 16.0667 14.2855C17.0258 12.767 18.3046 12.1875 19.7631 12.6271L20.5224 12.8469L20.5024 14.805C20.4825 16.7232 20.4625 16.8031 19.8431 17.5024C18.5243 19.001 18.4844 21.1589 19.7232 22.6374C21.6014 24.8753 25.138 24.3158 26.2769 21.5984C26.6965 20.5594 26.6565 19.7003 26.097 18.5014C25.4776 17.2027 24.3787 16.4234 22.98 16.2836L21.981 16.1837V15.0248C21.981 14.3654 22.0409 13.8459 22.1009 13.8459C22.4406 13.8459 30.1531 18.0219 30.6926 18.4815C31.3719 19.0809 31.7716 20.2198 31.6317 21.1589C31.5717 21.4786 30.6127 23.4966 29.4937 25.6345C28.0152 28.4718 27.2959 29.6307 26.8563 29.9304C26.5166 30.1502 24.7783 30.7696 22.9601 31.3091C21.1618 31.8286 19.5833 32.3481 19.4435 32.468C19.3036 32.5679 17.1057 36.7238 14.5482 41.6791C11.9906 46.6543 9.75281 50.8502 9.57298 51.0101C9.19335 51.4097 6.45599 51.9491 6.21622 51.6894C5.93649 51.3697 4.9974 48.992 4.9974 48.6124C4.9974 48.3526 5.33707 48.0929 6.05638 47.7532C7.41507 47.1338 7.77472 46.4145 7.43505 45.0758C7.11535 43.9169 7.49499 43.1376 8.61391 42.6981C9.0335 42.5182 9.57298 42.1386 9.79277 41.8589C10.2323 41.3194 10.3123 40.2205 9.99258 39.6011C9.6529 39.0016 10.4122 37.7029 11.1914 37.563C11.5311 37.4831 12.0306 37.2034 12.3303 36.9037C12.8099 36.4241 12.8298 36.3042 12.7299 35.1054C12.61 33.8466 12.63 33.7667 13.6291 31.9085L14.6481 29.9903L13.5092 26.4338C12.8898 24.4956 12.3903 22.5575 12.3903 22.1579C12.3903 21.6983 12.71 20.7792 13.3094 19.6204C14.2684 17.7022 14.2684 17.2426 13.3094 17.2426C12.9497 17.2426 12.67 17.6023 11.9107 19.1009C10.5321 21.7983 10.5321 22.058 11.8907 26.234L13.0496 29.7306L11.9906 31.8086C10.8717 34.0264 10.8917 33.8266 11.4112 35.6049C11.4711 35.7648 11.1914 35.9846 10.6919 36.1444C10.2723 36.3042 9.71285 36.6239 9.4531 36.8637C8.81371 37.4631 8.3142 38.8618 8.47404 39.661C8.75377 41.0397 8.73379 41.0597 7.83466 41.3793C6.55589 41.7989 5.73669 43.1177 5.85657 44.5163C5.89653 45.0558 6.01642 45.6752 6.09634 45.855C6.19624 46.1148 6.07636 46.2347 5.43698 46.4145C4.51786 46.6543 3.69865 47.4934 3.49885 48.3926C3.339 49.1918 4.73765 52.5486 5.49692 53.108C6.01642 53.5076 6.01642 53.5076 8.15435 53.0481C9.43312 52.7883 10.4122 52.4686 10.612 52.2489C10.8118 52.069 13.0696 47.8131 15.6471 42.818L20.3626 33.7267L21.2217 33.3871C22.8801 32.7277 22.7802 32.428 22.7802 37.8428C22.7802 43.1576 22.8202 43.3974 24.059 44.1367C24.6384 44.4963 25.2978 44.5163 35.2682 44.5163C45.0188 44.5163 45.9179 44.4963 46.4973 44.1567C47.5363 43.5972 47.7761 42.8979 47.7162 40.7599L47.6562 38.9217H47.0568H46.4574L46.3575 40.6401C46.2975 41.6591 46.1377 42.4983 45.9778 42.6981C45.758 42.9778 45.2385 43.0178 42.6411 43.0178H39.564V39.0416C39.564 35.6848 39.5241 35.0055 39.2443 34.7458C38.9846 34.486 38.3452 34.4261 35.3881 34.4261C32.9105 34.4261 31.7716 34.506 31.6117 34.6658C31.4319 34.8457 31.3719 36.0645 31.3719 38.9617V43.0178H28.175C25.2379 43.0178 24.9381 42.9778 24.5785 42.6182C24.1989 42.2385 24.1789 41.9588 24.1789 37.3233V32.448L25.0381 32.2282C27.5956 31.5888 28.4548 30.9095 29.6536 28.6317L30.4129 27.193L31.4319 27.2929C32.1512 27.3529 32.5308 27.4928 32.6707 27.7525C33.43 29.1312 35.0084 29.8705 36.3471 29.4708C38.9446 28.6916 39.3842 25.0951 37.0664 23.7164C35.6278 22.8572 33.2901 23.6165 32.7506 25.135C32.5308 25.7544 32.4109 25.8344 31.8115 25.8344C31.0123 25.8344 31.0323 25.7944 32.0713 23.9162C32.6107 22.9372 33.0104 22.5375 34.1692 21.7583L35.5879 20.8192L38.7248 22.9571C40.4432 24.116 42.8808 25.7544 44.1196 26.5736L46.3575 28.0922V32.0284C46.3575 36.2043 46.4374 36.544 47.2966 36.3842C47.6163 36.3242 47.6562 36.0045 47.7162 32.7477C47.7561 29.4708 47.7961 29.2111 48.1158 29.351C50.4335 30.35 52.8712 28.1321 51.8322 25.9343C51.5525 25.3348 50.8132 24.7554 47.876 22.7973C45.8779 21.4586 44.2395 20.3796 44.2195 20.3596C44.2195 20.3397 44.4193 19.6603 44.6991 18.8411C45.3185 17.0029 45.5183 14.2256 45.1586 12.4073C44.0397 6.65287 39.1844 2.51687 33.37 2.33704C32.331 2.31706 31.2521 2.33704 30.9723 2.377ZM35.7477 4.15529C38.2253 4.81465 40.7629 6.67286 42.1615 8.85075C43.9997 11.728 44.3994 15.804 43.1406 18.7812L42.8608 19.4205L39.7838 17.3226C38.0855 16.1837 36.4071 15.2046 36.0674 15.1247C35.2882 14.9848 34.389 15.3445 32.8105 16.4234C32.1512 16.863 31.5518 17.1427 31.4519 17.0428C31.352 16.9629 29.274 15.824 26.8363 14.5453C23.7593 12.9268 22.3806 12.1076 22.3806 11.8878C22.3806 11.3084 23.5595 9.0106 24.4386 7.89168C25.7374 6.19332 28.2749 4.5549 30.3729 4.05538C31.5118 3.79564 34.5888 3.83559 35.7477 4.15529ZM43.2605 21.4985C49.5943 25.7544 50.4535 26.3938 50.5135 26.8933C50.5534 27.213 50.4735 27.5927 50.3336 27.7525C49.7742 28.4318 49.0748 28.0722 42.4812 23.6365C38.9047 21.2188 35.8077 19.2407 35.6278 19.2407C35.448 19.2407 34.8686 19.5205 34.3291 19.8601C33.7696 20.1798 33.3101 20.4396 33.2901 20.3996C33.2901 20.3596 33.1302 19.9201 32.9504 19.4006C32.6507 18.5214 32.6507 18.4415 32.9504 18.1817C33.6298 17.5823 35.2882 16.6432 35.6678 16.6432C35.8876 16.6432 39.3043 18.8211 43.2605 21.4985ZM23.9791 18.2217C24.9381 18.921 25.3178 20.5395 24.6784 21.3587C24.3787 21.7383 24.3787 21.7383 24.059 21.3387C23.6394 20.7992 22.3806 18.2217 22.3806 17.882C22.3806 17.5224 23.2797 17.7222 23.9791 18.2217ZM21.5614 19.94C21.9011 20.6594 22.3407 21.4985 22.5604 21.8182C22.8002 22.1379 22.98 22.4576 22.98 22.5176C22.98 22.7373 22.3606 22.6374 21.7013 22.3377C20.902 21.9581 20.3825 21.0989 20.3825 20.1399C20.3825 19.4805 20.6623 18.6413 20.8821 18.6413C20.942 18.6413 21.2417 19.2207 21.5614 19.94ZM36.3471 25.0151C36.6069 25.195 36.0874 25.4148 34.7287 25.7145C34.0494 25.8743 34.0094 25.5746 34.6088 25.155C35.1083 24.7954 35.9076 24.7354 36.3471 25.0151ZM37.1663 26.8334C37.1663 26.9533 36.9466 27.273 36.6668 27.5327C36.0674 28.1321 35.1883 28.1721 34.5489 27.6326L34.0693 27.253L34.6688 27.233C35.0084 27.213 35.6278 27.0931 36.0674 26.9333C37.1064 26.5936 37.1663 26.5936 37.1663 26.8334ZM37.9656 39.5211V43.0178H35.3681H32.7706V39.5211V36.0245H35.3681H37.9656V39.5211Z" fill="white"/>
<path d="M15.9468 33.1673C15.787 33.3671 14.2684 36.1844 12.5901 39.4213C10.9117 42.6581 9.15338 46.0549 8.67384 46.974C7.97451 48.3127 7.83465 48.7123 7.99449 49.032C8.23426 49.4716 8.85366 49.5315 9.15338 49.1519C9.55299 48.6524 17.1856 33.8467 17.1856 33.5469C17.1856 33.3871 17.0058 33.1473 16.806 33.0274C16.3065 32.7677 16.3065 32.7677 15.9468 33.1673Z" fill="white"/>
</svg>
