<svg width="55" height="55" viewBox="0 0 55 55" fill="none" xmlns="http://www.w3.org/2000/svg">
<path d="M34.3823 4.23885C34.2231 4.39812 34.1434 5.21437 34.1434 6.62788V8.77801H34.9398H35.7361V7.28487C35.7361 6.46861 35.7958 5.79172 35.8954 5.79172C35.975 5.79172 38.1252 6.07044 40.6735 6.4288L45.2923 7.06587V8.32011V9.57436H43.6996H42.1069V10.3707V11.167H43.6996H45.2923V11.9634V12.7597H43.6996H42.1069V13.5561V14.3524H43.6996H45.2923V15.1488V15.9451H43.6996H42.1069V16.7415V17.5378H43.6996H45.2923V18.3341V19.1305H46.0886H46.8849V12.5806C46.8849 7.5835 46.8252 5.99081 46.6261 5.83154C46.427 5.67227 35.7162 3.99994 34.8402 3.99994C34.7208 3.99994 34.5217 4.09949 34.3823 4.23885Z" fill="white"/>
<path d="M11.9448 7.94186C10.6905 8.51921 10.0933 9.71373 10.3322 11.0476C10.4118 11.406 10.9493 12.3616 11.5466 13.1579C12.6217 14.5913 12.6416 14.6511 12.6416 15.9451V17.279L8.81912 22.8335C4.1605 29.6024 3.98132 29.9807 3.98132 32.3697C3.98132 33.9226 4.06096 34.3208 4.53876 35.3759C4.8573 36.0528 5.45456 36.9288 5.85273 37.3469L6.60926 38.0636L7.04725 37.5261C7.56487 36.8691 7.56487 36.8094 7.04725 36.3315C6.80835 36.1325 6.39027 35.4954 6.11155 34.9579C5.67356 34.1217 5.57401 33.7036 5.57401 32.3697C5.57401 30.359 5.5342 30.4187 10.1928 23.6697L13.856 18.3342H17.4196H20.9833L24.7062 23.7493C26.7568 26.7157 28.6282 29.6223 28.887 30.1798C29.325 31.1354 29.4046 31.1951 29.982 31.1155C30.3204 31.0757 30.639 30.8965 30.6987 30.7571C30.8978 30.2196 29.7232 28.2287 26.0202 22.8335L22.1977 17.279V15.9451C22.1977 14.6511 22.2176 14.5913 23.2927 13.1579C23.8899 12.3616 24.4275 11.406 24.5071 11.0476C24.7659 9.67391 24.0691 8.41967 22.7751 7.90204C21.7398 7.48396 21.2023 7.58351 19.0721 8.65857L17.4196 9.45492L15.7473 8.63866C13.637 7.58351 12.98 7.46406 11.9448 7.94186ZM15.3292 10.2114L17.4196 11.2467L19.6096 10.1716L21.7995 9.09656L22.3371 9.49473C23.213 10.1517 23.1533 10.7092 21.9986 12.2222L20.9833 13.5561H17.4196H13.856L12.8407 12.2421C12.3031 11.5055 11.8452 10.7092 11.8452 10.4503C11.8452 10.0323 12.6615 9.1762 13.0597 9.1762C13.1592 9.1762 14.1745 9.63409 15.3292 10.2114ZM20.605 15.9451V16.7415H17.4196H14.2343V15.9451V15.1488H17.4196H20.605V15.9451Z" fill="white"/>
<path d="M33.745 10.8485C30.7189 11.5055 28.1507 12.1426 28.0114 12.2222C27.8322 12.3417 27.7725 13.2376 27.7725 15.3678V18.3342H28.5688H29.3652V15.8456C29.3652 14.4719 29.4249 13.357 29.5045 13.357C29.6041 13.357 36.8707 11.8241 38.4833 11.4657C38.9213 11.3662 38.9213 11.3861 38.9213 13.2575V15.1488H37.7268H36.5323V15.9451V16.7415H37.7268H38.9213V17.5378V18.3342H37.7268H36.5323V19.1305V19.9269H37.7268H38.9213V20.7232V21.5195H37.7268H36.5323V22.3159V23.1122H37.7268H38.9213V23.9086V24.7049H37.7268H36.5323V25.5013V26.2976H37.7268H38.9213V28.6866V31.0757H39.7176H40.514V20.5639C40.514 9.51465 40.514 9.55447 39.638 9.59429C39.3991 9.61419 36.7512 10.1716 33.745 10.8485Z" fill="white"/>
<path d="M29.8632 19.2101L26.0806 20.0463L26.1403 20.6436C26.1801 20.9621 26.2996 21.3005 26.3792 21.4001C26.5186 21.5395 31.2966 20.6834 33.0088 20.2056C33.3273 20.106 33.3472 20.4047 33.3472 24.3864V28.6866H34.1436H34.9399V23.7493C34.9399 18.5731 34.9001 18.3143 34.0639 18.3541C33.825 18.374 31.9536 18.7522 29.8632 19.2101Z" fill="white"/>
<path d="M42.1065 21.5196V22.3159H44.4955H46.8846V23.5104V24.705H47.6809H48.4773V22.953C48.4773 21.858 48.3976 21.1214 48.2384 20.9621C48.0791 20.8029 47.0837 20.7232 45.053 20.7232H42.1065V21.5196Z" fill="white"/>
<path d="M16.6232 23.59C16.6232 23.9085 16.4838 24.1275 16.2051 24.2072C15.6875 24.3864 15.0305 25.4415 15.0305 26.1582C15.0305 27.1337 15.5481 27.7907 16.8223 28.4676C18.1363 29.1644 18.3951 29.5228 18.0168 29.9807C17.6784 30.3988 17.0612 30.3589 16.7825 29.8811C16.444 29.3436 15.0305 29.3038 15.0305 29.8214C15.0305 30.3589 15.7472 31.4141 16.2051 31.5734C16.4838 31.653 16.6232 31.872 16.6232 32.1905C16.6232 32.6086 16.7028 32.6683 17.4196 32.6683C18.1363 32.6683 18.2159 32.6086 18.2159 32.1905C18.2159 31.872 18.3553 31.653 18.634 31.5734C19.1516 31.3942 19.8086 30.339 19.8086 29.6223C19.8086 28.6468 19.291 27.9898 18.0168 27.3129C16.7028 26.6161 16.444 26.2578 16.8223 25.7999C17.1607 25.3818 17.7779 25.4216 18.0566 25.8994C18.3951 26.4369 19.8086 26.4768 19.8086 25.9392C19.8086 25.4216 19.0919 24.3664 18.634 24.2072C18.3553 24.1275 18.2159 23.9085 18.2159 23.59C18.2159 23.1719 18.1363 23.1122 17.4196 23.1122C16.7028 23.1122 16.6232 23.1719 16.6232 23.59Z" fill="white"/>
<path d="M29.3654 23.9086V24.705H30.5599H31.7545V23.9086V23.1123H30.5599H29.3654V23.9086Z" fill="white"/>
<path d="M42.1065 24.7049V25.5012H43.6992H45.2919V24.7049V23.9085H43.6992H42.1065V24.7049Z" fill="white"/>
<path d="M45.8097 29.065C42.8433 31.7924 40.3348 33.9824 40.2353 33.9227C40.1158 33.843 38.7421 33.0069 37.2092 32.0313C35.6563 31.0757 34.2826 30.2794 34.1432 30.2794C33.984 30.2794 31.794 31.8522 29.2258 33.7634C26.6775 35.6746 24.5075 37.2474 24.4278 37.2474C24.3283 37.2474 22.218 36.3913 19.7294 35.3561C17.2408 34.3208 15.0907 33.4648 14.9712 33.4648C14.7323 33.4648 3.62332 42.1449 3.54369 42.3838C3.50387 42.4635 3.68305 42.782 3.94186 43.0806L4.37985 43.6381L9.73527 39.4573C12.6618 37.1479 15.1305 35.2565 15.2101 35.2565C15.2898 35.2565 17.4001 36.1126 19.8887 37.1479C22.3772 38.1831 24.5274 39.0392 24.6468 39.0392C24.7464 39.0392 26.9562 37.4664 29.5045 35.5353L34.183 32.0512L37.2291 33.9426C38.9014 34.9977 40.3945 35.8538 40.5538 35.8538C40.8126 35.8538 51.8818 25.7203 52.0013 25.3819C52.0411 25.2823 51.8619 24.9439 51.6031 24.6452L51.1651 24.0878L45.8097 29.065Z" fill="white"/>
<path d="M30.1615 27.0939V27.8903H30.9578H31.7542V27.0939V26.2976H30.9578H30.1615V27.0939Z" fill="white"/>
<path d="M11.8455 27.8903V28.6866H12.6418H13.4381V27.8903V27.094H12.6418H11.8455V27.8903Z" fill="white"/>
<path d="M21.4015 27.8903V28.6866H22.1978H22.9942V27.8903V27.094H22.1978H21.4015V27.8903Z" fill="white"/>
<path d="M42.1065 27.8903V28.6866H43.6992H45.2919V27.8903V27.094H43.6992H42.1065V27.8903Z" fill="white"/>
<path d="M47.6813 41.03V50.188H46.885H46.0887V42.2245V34.2611H45.2923H44.496V42.2245V50.188H43.6996H42.9033V43.8172V37.4464H42.1069H41.3106V43.8172V50.188H40.5142H39.7179V43.8172V37.4464H38.9216H38.1252V43.8172V50.188H37.3289H36.5325V43.0208V35.8537H35.7362H34.9398V43.0208V50.188H34.1435H33.3471V43.0208V35.8537H32.5508H31.7544V43.0208V50.188H30.9581H30.1618V44.2154V38.2428H29.3654H28.5691V44.2154V50.188H27.7727H26.9764V45.4099V40.6318H26.18H25.3837V45.4099V50.188H24.5873H23.791V45.4099V40.6318H22.9947H22.1983V45.4099V50.188H21.402H20.6056V45.0117V39.8355H19.8093H19.0129V45.0117V50.188H18.2166H17.4202V44.2154V38.2428H16.6239H15.8276V44.2154V50.188H15.0312H14.2349V44.6135V39.0391H13.4385H12.6422V44.6135V50.188H11.8458H11.0495V45.8081V41.4282H10.2531H9.4568V45.8081V50.188H8.66045H7.86411V47.0026V43.8172H7.06776H6.27142V47.0026V50.188H5.0769H3.88239V50.9843V51.7806H27.7727H51.6631V50.9843V50.188H50.4685H49.274V41.03V31.872H48.4777H47.6813V41.03Z" fill="white"/>
</svg>
