<svg width="55" height="55" viewBox="0 0 55 55" fill="none" xmlns="http://www.w3.org/2000/svg">
<g clip-path="url(#clip0_22_1324)">
<path d="M29.2853 -0.742188C29.1349 -0.591797 29.0275 -0.0332031 29.0275 0.525391V1.53516L28.1896 1.42773C27.7384 1.36328 26.3634 1.42773 25.1388 1.57812C19.9825 2.17969 15.6427 4.34961 12.0333 8.19531C10.2931 10.0215 9.58409 11.0527 8.4669 13.2871C5.22276 19.7754 5.24425 27.0156 8.53136 33.375C9.58409 35.4375 11.9903 38.6172 15.1915 42.2266C18.3927 45.8145 26.8146 54 27.2872 54C27.631 54 35.6446 46.502 37.9005 44.0742C38.8028 43.0859 38.9103 42.5273 38.2442 42.1621C37.8146 41.9473 37.4493 42.248 33.8829 45.7715C31.756 47.877 29.3927 50.1758 28.6622 50.8633L27.3517 52.1309L24.4298 49.3809C22.84 47.8555 20.09 45.0625 18.3067 43.1719C10.0138 34.2773 8.08018 30.8184 7.82237 24.2871C7.67198 21.0645 7.95128 19.0234 8.87511 16.4023C10.7442 11.1172 14.3321 7.16406 19.4239 4.80078C21.8517 3.68359 23.5489 3.27539 26.5138 3.14648L29.0275 3.01758V4.00586V4.99414L27.8028 5.05859L26.5567 5.12305L26.4923 6.43359L26.4278 7.74414L25.1817 7.87305C23.6993 8.04492 20.9278 8.99023 20.3478 9.52734C20.0255 9.84961 20.004 9.97852 20.2189 10.3867C20.4982 10.9238 20.6271 10.9023 22.9044 10.1074C23.7423 9.80664 24.8595 9.50586 25.4396 9.41992L26.4493 9.29102V15.0918V20.9141H25.3751H24.3009V17.3047C24.3009 13.6953 24.1935 13.1797 23.5275 13.1797C23.3771 13.1797 23.0978 13.3301 22.9259 13.5234C22.6466 13.8027 22.5821 14.4688 22.5821 17.3906V20.9141H21.7228H20.8634V18.8945C20.8634 17.0254 20.8204 16.8535 20.4337 16.7246C19.5958 16.4668 19.3595 16.9609 19.3595 19.002V20.9141H17.7911C16.8673 20.9141 16.1153 21.0215 15.965 21.1719C15.7716 21.3652 15.7071 22.7832 15.7071 26.1777L15.6857 30.9043L15.0626 29.7227C13.9884 27.5957 13.6876 26.2207 13.6876 23.3848C13.6876 21.1934 13.7735 20.5488 14.2677 19.0879C14.9767 16.9395 16.0509 15.1133 17.4474 13.6953C18.6935 12.4277 18.8224 11.6113 17.8341 11.5039C17.3829 11.4609 17.0392 11.6973 16.1153 12.7285C14.5685 14.4258 13.6446 15.9941 12.8497 18.2715C12.2911 19.9043 12.1837 20.5488 12.0978 22.8477C11.9903 26.1348 12.3126 27.7246 13.6661 30.4746C17.6622 38.6816 27.5665 41.6465 35.1935 36.8984C37.879 35.2441 39.8126 33.0098 41.1876 30.0449C42.1974 27.8535 42.5626 26.1348 42.5626 23.4707C42.5626 19.9688 41.6603 16.9609 39.7696 14.2754L38.8888 13.0293L38.9532 9.93555L39.0177 6.8418L40.7364 8.56055C43.4864 11.2891 45.3341 14.4473 46.3009 18.1211C46.8165 19.9902 46.9884 24.5449 46.6446 26.6289C46.0001 30.625 44.3243 34.041 40.8653 38.3164C39.5333 39.9492 39.34 40.5508 40.0275 40.9805C40.5216 41.2812 41.0802 40.7441 43.1857 37.9512C47.6544 32 49.3087 26.1133 48.256 19.7324C47.4825 14.8984 45.3126 10.7734 41.7892 7.35742C40.0275 5.68164 38.8028 4.75781 37.256 3.96289L36.3321 3.51172V1.51367C36.3321 0.246094 36.2462 -0.570312 36.0743 -0.742188C35.9025 -0.914062 34.8282 -1 32.6798 -1C30.5314 -1 29.4571 -0.914062 29.2853 -0.742188ZM34.6134 2.86719V5.01562H32.6798H30.7462V2.86719V0.71875H32.6798H34.6134V2.86719ZM37.3634 19.8184L37.4064 33.0312L36.8263 33.6543C35.086 35.459 31.713 37.1133 29.1993 37.3926L27.9532 37.5215V22.1602C27.9532 13.7168 28.0177 6.73438 28.1036 6.64844C28.1896 6.58398 30.295 6.54102 32.7657 6.5625L37.2989 6.62695L37.3634 19.8184ZM40.006 18.0996C41.4669 21.9668 41.338 25.9844 39.6837 29.4004L38.9532 30.9043L38.9317 23.4922C38.9317 16.9395 38.9532 16.123 39.2325 16.4883C39.4044 16.7246 39.7482 17.4551 40.006 18.0996ZM26.4493 30.0664V37.5215L25.2677 37.3711C22.9259 37.1133 20.1114 35.7383 18.0704 33.8906L17.211 33.1172V27.875V22.6328H21.8302H26.4493V30.0664Z" fill="white"/>
<path d="M30.5742 11.0742C30.4453 11.2031 30.3164 11.5039 30.3164 11.6973C30.3164 12.3848 30.8535 12.5567 32.7871 12.4922C34.3125 12.4492 34.7207 12.3633 34.9141 12.041C35.0859 11.7832 35.0859 11.5684 34.9141 11.2891C34.7207 10.9883 34.3125 10.9024 32.7656 10.8594C31.4551 10.8164 30.7676 10.8809 30.5742 11.0742Z" fill="white"/>
<path d="M30.7032 17.2832C30.252 17.541 30.2091 18.1426 30.5743 18.5078C30.7247 18.6582 31.5196 18.7656 32.6798 18.7656C33.8399 18.7656 34.6349 18.6582 34.7853 18.5078C35.172 18.1211 35.086 17.5195 34.6349 17.2617C34.0978 16.9824 31.1759 16.9824 30.7032 17.2832Z" fill="white"/>
<path d="M30.381 23.8359C30.3166 24.0293 30.3381 24.3516 30.467 24.5449C30.7892 25.0605 34.5705 25.0605 34.8927 24.5449C35.0216 24.3516 35.0431 24.0293 34.9787 23.8359C34.7853 23.3203 30.5744 23.3203 30.381 23.8359Z" fill="white"/>
<path d="M30.424 30.1309C30.1232 31.0762 30.4455 31.2266 32.6799 31.2266C34.549 31.2266 34.8068 31.1836 34.9357 30.8184C35.2365 29.873 34.9142 29.7227 32.6799 29.7227C30.8107 29.7227 30.5529 29.7656 30.424 30.1309Z" fill="white"/>
<path d="M19.3594 25.4043C19.252 25.6406 19.1445 26.1777 19.1445 26.6074C19.1445 27.5742 19.4668 28.2188 19.9609 28.2188C20.6055 28.2188 20.8633 27.7461 20.8633 26.6074C20.8633 26.0059 20.7559 25.4043 20.6055 25.2539C20.2188 24.8672 19.6172 24.9531 19.3594 25.4043Z" fill="white"/>
<path d="M23.0333 25.2969C22.8829 25.4902 22.7969 26.1133 22.8399 26.8652C22.9044 28.0898 22.9044 28.1113 23.5489 28.1113C24.1934 28.1113 24.1934 28.1113 24.2579 26.7363C24.3009 25.7695 24.2364 25.2969 24.043 25.1895C23.6348 24.9102 23.3126 24.9531 23.0333 25.2969Z" fill="white"/>
<path d="M19.4669 31.1406C18.9943 31.6348 19.1017 33.5683 19.6388 33.8906C20.3048 34.2988 20.756 33.8047 20.8204 32.5371C20.9064 30.9687 20.2833 30.3242 19.4669 31.1406Z" fill="white"/>
<path d="M23.0333 31.0977C22.8829 31.291 22.7969 31.9141 22.8399 32.666C22.9044 33.8906 22.9044 33.9121 23.5489 33.9121C24.1934 33.9121 24.1934 33.8906 24.2579 32.666C24.3223 31.4199 24.086 30.7969 23.5489 30.7969C23.3985 30.7969 23.1622 30.9258 23.0333 31.0977Z" fill="white"/>
</g>
<defs>
<clipPath id="clip0_22_1324">
<rect width="55" height="55" fill="white"/>
</clipPath>
</defs>
</svg>
